<svg id="svg" version="1.1" xmlns="http://www.w3.org/2000/svg" xmlns:xlink="http://www.w3.org/1999/xlink" width="400" height="298.98989898989896" viewBox="0, 0, 400,298.98989898989896"><g id="svgg"><path id="path0" d="M0.000 149.589 L 0.000 299.177 200.000 299.177 L 400.000 299.177 400.000 149.589 L 400.000 0.000 200.000 0.000 L 0.000 0.000 0.000 149.589 M337.507 15.255 C 352.858 16.249,366.475 25.801,373.765 40.688 C 374.853 42.909,375.834 45.333,375.946 46.073 C 376.058 46.814,376.384 47.891,376.671 48.467 C 377.997 51.135,377.973 49.546,378.088 142.708 C 378.201 233.472,378.127 240.671,377.073 242.709 C 376.830 243.180,376.372 244.575,376.057 245.809 C 375.741 247.044,375.228 248.416,374.916 248.859 C 374.604 249.301,374.246 250.000,374.119 250.411 C 373.803 251.438,371.996 255.029,370.881 256.844 C 369.517 259.065,363.668 265.669,363.065 265.669 C 362.954 265.669,362.524 266.073,362.108 266.567 C 361.693 267.061,361.213 267.464,361.042 267.464 C 360.871 267.464,360.217 267.902,359.588 268.437 C 357.840 269.925,356.867 270.619,355.722 271.197 C 355.146 271.487,354.445 271.927,354.163 272.173 C 353.460 272.790,348.950 274.441,343.697 276.006 C 339.412 277.283,335.525 277.318,199.252 277.321 C 70.155 277.323,54.512 277.216,50.711 276.307 C 44.414 274.801,40.231 273.073,35.245 269.918 C 33.112 268.569,27.830 264.286,27.818 263.896 C 27.815 263.802,27.041 262.899,26.098 261.889 C 23.861 259.494,22.780 258.101,21.728 256.257 C 17.623 249.064,16.170 245.149,15.393 239.192 C 14.847 235.014,14.734 59.807,15.273 53.702 C 15.936 46.177,19.827 37.190,25.131 30.928 C 33.534 21.008,43.683 16.032,57.292 15.162 C 61.237 14.910,333.576 15.000,337.507 15.255 M100.524 63.765 C 93.524 65.210,88.476 67.344,84.377 70.593 C 83.641 71.176,82.772 71.855,82.446 72.102 C 77.781 75.628,71.555 83.469,68.310 89.903 C 67.978 90.561,67.136 92.177,66.438 93.493 C 62.424 101.068,58.550 114.201,56.730 126.402 C 53.722 146.564,53.402 180.867,56.131 190.556 C 57.423 195.144,63.654 207.724,66.884 212.266 C 67.703 213.418,68.631 214.764,68.945 215.258 C 71.485 219.243,79.663 227.911,83.122 230.284 C 84.054 230.924,85.848 232.150,87.109 233.009 C 90.072 235.028,95.526 237.614,98.861 238.580 L 101.488 239.342 196.545 239.342 C 302.644 239.342,293.477 239.520,297.727 237.379 C 305.572 233.428,311.324 228.608,316.630 221.541 C 319.153 218.180,319.308 217.964,321.226 215.108 C 323.315 211.998,329.394 199.979,329.394 198.959 C 329.394 198.778,329.686 198.063,330.043 197.370 C 330.777 195.944,332.096 192.403,333.131 189.080 C 333.515 187.846,333.990 186.432,334.187 185.939 C 335.295 183.166,338.802 169.145,339.395 165.122 C 339.651 163.381,340.030 161.496,340.237 160.933 C 341.507 157.480,340.081 136.994,338.115 130.441 C 337.794 129.372,337.369 127.784,337.170 126.914 C 336.589 124.370,333.399 115.113,332.251 112.640 C 332.022 112.147,331.185 110.332,330.390 108.608 C 328.705 104.952,325.013 97.883,324.448 97.233 C 324.234 96.986,323.242 95.572,322.244 94.091 C 319.214 89.594,318.864 89.107,316.547 86.163 C 308.106 75.437,296.650 67.088,286.879 64.541 L 283.171 63.575 192.521 63.531 C 137.706 63.505,101.338 63.597,100.524 63.765 M280.677 100.122 C 287.881 102.747,292.845 107.459,297.190 115.794 C 297.923 117.199,298.676 118.950,298.864 119.683 C 299.052 120.417,299.599 122.229,300.079 123.710 C 302.336 130.666,303.301 135.300,304.255 143.755 C 304.800 148.578,304.974 157.298,304.584 160.209 C 303.916 165.194,301.611 174.531,300.190 178.010 C 299.955 178.586,299.458 180.205,299.086 181.607 C 295.759 194.149,283.567 205.968,271.619 208.234 C 269.291 208.675,119.218 208.664,117.500 208.222 C 110.923 206.531,105.200 203.452,101.850 199.801 C 87.865 184.564,82.626 164.769,85.989 139.865 C 89.463 114.132,97.523 101.444,111.743 99.322 C 112.565 99.200,150.329 99.117,195.662 99.138 L 278.085 99.177 280.677 100.122 M233.807 142.694 C 222.234 142.919,219.435 144.638,218.703 151.968 C 218.422 154.785,216.904 157.695,216.904 155.417 C 216.904 153.309,213.258 152.212,205.535 151.995 C 196.959 151.755,195.524 151.175,197.580 148.783 L 198.301 147.943 205.134 147.778 C 212.693 147.595,213.015 147.524,214.473 145.705 L 215.483 144.445 214.839 143.800 C 214.082 143.043,198.448 142.636,195.950 143.309 C 191.606 144.479,189.955 151.073,193.166 154.424 C 194.782 156.111,196.102 156.396,203.180 156.584 C 210.099 156.768,211.036 156.937,211.566 158.100 C 212.532 160.221,210.587 160.783,202.244 160.797 L 195.213 160.808 193.792 161.659 C 192.558 162.398,192.371 162.640,192.371 163.492 C 192.371 165.288,192.415 165.296,202.664 165.294 C 214.543 165.292,215.041 165.138,216.685 160.983 C 217.348 159.308,218.202 158.323,219.032 158.275 C 219.133 158.270,219.455 158.891,219.747 159.657 C 221.508 164.266,224.620 165.441,235.093 165.452 C 242.679 165.459,242.586 165.438,245.924 167.826 C 249.036 170.052,250.711 169.444,250.711 166.090 C 250.711 164.748,250.793 164.608,252.445 163.154 C 257.994 158.270,258.013 149.599,252.486 144.884 C 249.865 142.648,247.917 142.420,233.807 142.694 M114.667 143.340 C 113.257 143.747,113.160 144.127,112.925 150.202 C 112.489 161.422,113.007 164.515,115.399 164.996 C 116.780 165.273,117.431 164.099,117.687 160.873 C 117.873 158.538,117.937 158.363,118.969 157.399 L 120.056 156.383 124.276 156.574 C 131.691 156.909,135.774 156.074,137.610 153.846 C 139.632 151.394,140.613 153.004,140.613 158.772 C 140.613 163.063,141.003 164.468,142.340 164.989 C 143.174 165.315,153.709 165.503,156.318 165.239 L 158.710 164.996 159.267 163.813 C 160.227 161.772,159.644 161.556,153.190 161.556 C 144.884 161.556,145.101 161.803,145.101 152.313 C 145.101 144.630,145.041 144.273,143.660 143.696 C 142.327 143.139,141.296 143.542,140.818 144.808 C 140.328 146.109,138.574 146.097,137.548 144.785 C 136.264 143.144,135.453 143.032,125.056 143.047 C 119.873 143.054,115.198 143.186,114.667 143.340 M259.259 143.880 C 258.877 144.302,258.669 145.315,258.474 147.695 C 258.328 149.477,258.146 151.406,258.068 151.982 C 257.901 153.228,258.620 163.580,258.924 164.302 C 259.321 165.245,260.833 165.445,267.434 165.428 C 274.737 165.409,275.649 165.234,276.553 163.681 L 277.145 162.665 276.460 162.110 C 275.852 161.618,275.192 161.556,270.563 161.556 C 262.411 161.556,262.678 161.889,262.678 151.708 C 262.678 144.057,262.507 143.306,260.772 143.306 C 260.172 143.306,259.572 143.534,259.259 143.880 M180.237 146.031 C 178.930 147.366,176.851 149.486,175.616 150.743 C 174.381 152.000,172.586 153.904,171.627 154.974 C 170.669 156.043,169.519 157.322,169.072 157.816 C 164.621 162.737,164.442 162.996,164.950 163.771 C 166.063 165.470,167.816 164.662,171.196 160.892 C 177.114 154.293,181.417 149.615,182.437 148.671 C 185.571 145.772,186.189 143.605,183.882 143.605 C 182.690 143.605,182.470 143.751,180.237 146.031 M248.491 148.853 C 252.987 151.631,251.373 160.980,246.402 160.950 C 245.092 160.942,244.274 160.428,241.010 157.562 C 238.368 155.242,233.977 155.138,235.585 157.433 C 236.294 158.446,236.201 160.557,235.429 160.970 C 233.945 161.764,227.253 161.207,225.980 160.183 C 222.724 157.563,222.578 151.617,225.713 149.301 C 227.746 147.800,227.284 147.853,237.870 147.901 L 247.019 147.943 248.491 148.853 M132.416 148.322 C 133.683 149.168,133.707 150.921,132.461 151.595 C 131.114 152.325,120.638 152.673,119.158 152.038 C 117.557 151.350,117.752 149.282,119.497 148.435 C 120.212 148.089,131.913 147.986,132.416 148.322 " stroke="none" fill="#fffeff" fill-rule="evenodd"></path><path id="path1" d="M57.292 15.162 C 43.683 16.032,33.534 21.008,25.131 30.928 C 19.827 37.190,15.936 46.177,15.273 53.702 C 14.734 59.807,14.847 235.014,15.393 239.192 C 16.170 245.149,17.623 249.064,21.728 256.257 C 22.780 258.101,23.861 259.494,26.098 261.889 C 27.041 262.899,27.815 263.802,27.818 263.896 C 27.830 264.286,33.112 268.569,35.245 269.918 C 40.231 273.073,44.414 274.801,50.711 276.307 C 54.512 277.216,70.155 277.323,199.252 277.321 C 335.525 277.318,339.412 277.283,343.697 276.006 C 348.950 274.441,353.460 272.790,354.163 272.173 C 354.445 271.927,355.146 271.487,355.722 271.197 C 356.867 270.619,357.840 269.925,359.588 268.437 C 360.217 267.902,360.871 267.464,361.042 267.464 C 361.213 267.464,361.693 267.061,362.108 266.567 C 362.524 266.073,362.954 265.669,363.065 265.669 C 363.668 265.669,369.517 259.065,370.881 256.844 C 371.996 255.029,373.803 251.438,374.119 250.411 C 374.246 250.000,374.604 249.301,374.916 248.859 C 375.228 248.416,375.741 247.044,376.057 245.809 C 376.372 244.575,376.830 243.180,377.073 242.709 C 378.127 240.671,378.201 233.472,378.088 142.708 C 377.973 49.546,377.997 51.135,376.671 48.467 C 376.384 47.891,376.058 46.814,375.946 46.073 C 375.834 45.333,374.853 42.909,373.765 40.688 C 366.475 25.801,352.858 16.249,337.507 15.255 C 333.576 15.000,61.237 14.910,57.292 15.162 M286.879 64.541 C 296.650 67.088,308.106 75.437,316.547 86.163 C 318.864 89.107,319.214 89.594,322.244 94.091 C 323.242 95.572,324.234 96.986,324.448 97.233 C 325.013 97.883,328.705 104.952,330.390 108.608 C 331.185 110.332,332.022 112.147,332.251 112.640 C 333.399 115.113,336.589 124.370,337.170 126.914 C 337.369 127.784,337.794 129.372,338.115 130.441 C 340.081 136.994,341.507 157.480,340.237 160.933 C 340.030 161.496,339.651 163.381,339.395 165.122 C 338.802 169.145,335.295 183.166,334.187 185.939 C 333.990 186.432,333.515 187.846,333.131 189.080 C 332.096 192.403,330.777 195.944,330.043 197.370 C 329.686 198.063,329.394 198.778,329.394 198.959 C 329.394 199.979,323.315 211.998,321.226 215.108 C 319.308 217.964,319.153 218.180,316.630 221.541 C 311.324 228.608,305.572 233.428,297.727 237.379 C 293.477 239.520,302.644 239.342,196.545 239.342 L 101.488 239.342 98.861 238.580 C 95.526 237.614,90.072 235.028,87.109 233.009 C 85.848 232.150,84.054 230.924,83.122 230.284 C 79.663 227.911,71.485 219.243,68.945 215.258 C 68.631 214.764,67.703 213.418,66.884 212.266 C 64.368 208.728,60.916 202.116,57.514 194.316 C 53.435 184.965,53.044 151.112,56.730 126.402 C 58.550 114.201,62.424 101.068,66.438 93.493 C 67.136 92.177,67.978 90.561,68.310 89.903 C 71.555 83.469,77.781 75.628,82.446 72.102 C 82.772 71.855,83.641 71.176,84.377 70.593 C 88.476 67.344,93.524 65.210,100.524 63.765 C 101.338 63.597,137.706 63.505,192.521 63.531 L 283.171 63.575 286.879 64.541 M111.743 99.322 C 97.523 101.444,89.463 114.132,85.989 139.865 C 82.626 164.769,87.865 184.564,101.850 199.801 C 105.200 203.452,110.923 206.531,117.500 208.222 C 119.218 208.664,269.291 208.675,271.619 208.234 C 283.567 205.968,295.759 194.149,299.086 181.607 C 299.458 180.205,299.955 178.586,300.190 178.010 C 301.611 174.531,303.916 165.194,304.584 160.209 C 304.974 157.298,304.800 148.578,304.255 143.755 C 303.301 135.300,302.336 130.666,300.079 123.710 C 299.599 122.229,299.052 120.417,298.864 119.683 C 298.676 118.950,297.923 117.199,297.190 115.794 C 292.845 107.459,287.881 102.747,280.677 100.122 L 278.085 99.177 195.662 99.138 C 150.329 99.117,112.565 99.200,111.743 99.322 M249.437 143.190 C 257.280 145.343,259.084 157.310,252.445 163.154 C 250.793 164.608,250.711 164.748,250.711 166.090 C 250.711 169.444,249.036 170.052,245.924 167.826 C 242.586 165.438,242.679 165.459,235.093 165.452 C 224.620 165.441,221.508 164.266,219.747 159.657 C 219.455 158.891,219.133 158.270,219.032 158.275 C 218.202 158.323,217.348 159.308,216.685 160.983 C 215.041 165.138,214.543 165.292,202.664 165.294 C 192.415 165.296,192.371 165.288,192.371 163.492 C 192.371 162.640,192.558 162.398,193.792 161.659 L 195.213 160.808 202.244 160.797 C 210.587 160.783,212.532 160.221,211.566 158.100 C 211.036 156.937,210.099 156.768,203.180 156.584 C 196.102 156.396,194.782 156.111,193.166 154.424 C 189.955 151.073,191.606 144.479,195.950 143.309 C 198.448 142.636,214.082 143.043,214.839 143.800 L 215.483 144.445 214.473 145.705 C 213.015 147.524,212.693 147.595,205.134 147.778 L 198.301 147.943 197.580 148.783 C 195.524 151.175,196.959 151.755,205.535 151.995 C 213.258 152.212,216.904 153.309,216.904 155.417 C 216.904 157.695,218.422 154.785,218.703 151.968 C 219.073 148.261,220.985 145.222,223.934 143.653 C 226.194 142.450,245.467 142.100,249.437 143.190 M135.656 143.452 C 136.303 143.682,137.154 144.282,137.548 144.785 C 138.574 146.097,140.328 146.109,140.818 144.808 C 141.296 143.542,142.327 143.139,143.660 143.696 C 145.041 144.273,145.101 144.630,145.101 152.313 C 145.101 161.803,144.884 161.556,153.190 161.556 C 159.644 161.556,160.227 161.772,159.267 163.813 L 158.710 164.996 156.318 165.239 C 153.709 165.503,143.174 165.315,142.340 164.989 C 141.003 164.468,140.613 163.063,140.613 158.772 C 140.613 153.004,139.632 151.394,137.610 153.846 C 135.774 156.074,131.691 156.909,124.276 156.574 L 120.056 156.383 118.969 157.399 C 117.937 158.363,117.873 158.538,117.687 160.873 C 117.431 164.099,116.780 165.273,115.399 164.996 C 113.007 164.515,112.489 161.422,112.925 150.202 C 113.160 144.127,113.257 143.747,114.667 143.340 C 116.317 142.863,134.272 142.959,135.656 143.452 M262.221 144.189 C 262.590 144.902,262.678 146.344,262.678 151.708 C 262.678 161.889,262.411 161.556,270.563 161.556 C 275.192 161.556,275.852 161.618,276.460 162.110 L 277.145 162.665 276.553 163.681 C 275.649 165.234,274.737 165.409,267.434 165.428 C 260.833 165.445,259.321 165.245,258.924 164.302 C 258.620 163.580,257.901 153.228,258.068 151.982 C 258.146 151.406,258.328 149.477,258.474 147.695 C 258.775 144.010,259.144 143.306,260.772 143.306 C 261.569 143.306,261.855 143.480,262.221 144.189 M185.338 144.198 C 185.564 144.908,184.153 147.084,182.437 148.671 C 181.417 149.615,177.114 154.293,171.196 160.892 C 167.816 164.662,166.063 165.470,164.950 163.771 C 164.442 162.996,164.621 162.737,169.072 157.816 C 169.519 157.322,170.669 156.043,171.627 154.974 C 172.586 153.904,174.381 152.000,175.616 150.743 C 176.851 149.486,178.930 147.366,180.237 146.031 C 182.832 143.382,184.849 142.657,185.338 144.198 M227.998 148.003 C 223.147 148.970,221.841 156.853,225.980 160.183 C 227.253 161.207,233.945 161.764,235.429 160.970 C 236.201 160.557,236.294 158.446,235.585 157.433 C 233.977 155.138,238.368 155.242,241.010 157.562 C 244.274 160.428,245.092 160.942,246.402 160.950 C 251.373 160.980,252.987 151.631,248.491 148.853 L 247.019 147.943 237.870 147.901 C 232.838 147.878,228.396 147.924,227.998 148.003 M119.497 148.435 C 117.752 149.282,117.557 151.350,119.158 152.038 C 120.638 152.673,131.114 152.325,132.461 151.595 C 133.707 150.921,133.683 149.168,132.416 148.322 C 131.913 147.986,120.212 148.089,119.497 148.435 " stroke="none" fill="#d1422e" fill-rule="evenodd"></path></g></svg>