<svg id="svg" version="1.1" xmlns="http://www.w3.org/2000/svg" xmlns:xlink="http://www.w3.org/1999/xlink" width="400" height="400" viewBox="0, 0, 400,400"><g id="svgg"><path id="path0" d="M178.637 1.378 C 179.822 2.244,179.311 2.363,174.112 2.425 C 170.138 2.473,169.296 2.584,169.471 3.042 C 169.627 3.447,169.339 3.600,168.419 3.600 C 167.723 3.600,167.256 3.432,167.383 3.228 C 167.509 3.023,167.426 2.739,167.197 2.598 C 166.968 2.456,166.830 2.579,166.890 2.870 C 166.971 3.259,166.308 3.427,164.400 3.502 C 161.257 3.626,159.895 3.906,160.181 4.370 C 160.530 4.933,159.311 5.200,156.391 5.200 C 154.882 5.200,153.536 5.380,153.400 5.600 C 153.264 5.820,153.354 6.000,153.600 6.000 C 153.846 6.000,153.950 6.157,153.832 6.348 C 153.647 6.648,150.250 6.931,147.280 6.894 C 146.414 6.883,146.402 6.916,147.080 7.447 C 147.476 7.757,147.620 7.988,147.400 7.958 C 145.349 7.686,143.508 8.065,143.316 8.800 C 143.132 9.502,142.770 9.600,140.353 9.600 C 137.718 9.600,137.373 9.760,137.553 10.900 C 137.579 11.065,136.541 11.200,135.247 11.200 C 133.230 11.200,132.863 11.314,132.684 12.000 C 132.569 12.440,132.638 12.800,132.837 12.800 C 133.037 12.800,133.200 13.117,133.200 13.504 C 133.200 14.282,133.361 14.398,138.800 17.532 C 166.173 33.307,197.149 60.229,227.200 94.360 C 228.630 95.984,229.982 97.513,230.204 97.757 C 230.427 98.000,231.507 99.280,232.604 100.600 C 233.702 101.920,234.698 103.090,234.818 103.200 C 235.330 103.669,243.007 113.055,247.252 118.400 C 254.200 127.150,261.132 136.453,271.009 150.281 C 275.998 157.265,286.864 173.828,292.606 183.200 C 293.887 185.290,295.608 188.080,296.431 189.400 C 298.492 192.707,308.000 209.180,308.000 209.445 C 308.000 209.564,308.697 210.862,309.548 212.330 C 315.514 222.619,326.723 245.323,333.281 260.400 C 335.243 264.910,337.086 269.140,337.377 269.800 C 337.914 271.019,340.331 277.110,343.012 284.000 C 346.139 292.038,354.000 314.961,354.000 316.042 C 354.000 318.348,356.260 322.000,357.686 322.000 C 358.995 322.000,359.200 321.877,359.200 321.088 C 359.200 320.587,359.560 319.917,360.000 319.600 C 360.440 319.283,360.800 318.703,360.800 318.312 C 360.800 317.920,361.070 317.600,361.400 317.600 C 361.941 317.600,362.178 317.125,362.047 316.300 C 362.021 316.135,362.135 316.021,362.300 316.047 C 363.292 316.204,363.600 315.872,363.600 314.647 C 363.600 313.630,363.799 313.241,364.400 313.084 C 364.840 312.969,365.200 312.577,365.200 312.214 C 365.200 311.850,365.371 311.658,365.580 311.788 C 366.053 312.080,366.800 310.742,366.800 309.603 C 366.800 309.135,366.972 308.859,367.183 308.989 C 367.393 309.119,367.454 309.535,367.319 309.913 C 367.183 310.291,367.205 310.481,367.366 310.337 C 367.669 310.065,367.916 309.088,367.969 307.947 C 367.986 307.587,368.347 307.203,368.771 307.092 C 369.302 306.953,369.583 306.471,369.671 305.545 C 369.751 304.714,369.995 304.240,370.311 304.304 C 370.592 304.361,370.939 304.091,371.082 303.704 C 371.225 303.317,371.535 302.872,371.771 302.715 C 372.201 302.429,372.257 302.248,372.350 300.847 C 372.378 300.432,372.760 299.999,373.200 299.884 C 373.804 299.726,374.000 299.338,374.000 298.304 C 374.000 296.644,374.325 296.244,375.138 296.903 C 375.650 297.319,375.708 297.288,375.492 296.713 C 375.351 296.335,375.390 295.930,375.580 295.812 C 375.770 295.695,375.823 295.209,375.698 294.732 C 375.518 294.044,375.609 293.918,376.136 294.120 C 376.501 294.260,376.814 294.246,376.831 294.087 C 376.847 293.929,376.950 293.440,377.059 293.000 C 377.168 292.560,377.253 291.842,377.247 291.405 C 377.238 290.770,377.308 290.727,377.596 291.193 C 378.129 292.056,378.446 291.494,378.472 289.642 C 378.490 288.309,378.636 288.000,379.247 288.000 C 379.859 288.000,380.000 287.700,380.000 286.400 C 380.000 285.520,380.135 284.821,380.300 284.847 C 381.301 285.005,381.600 284.672,381.600 283.400 C 381.600 282.422,381.781 282.000,382.200 282.000 C 382.633 282.000,382.800 281.556,382.800 280.400 C 382.800 279.067,382.933 278.800,383.600 278.800 C 384.219 278.800,384.400 278.533,384.400 277.620 C 384.400 276.912,384.680 276.283,385.100 276.048 C 385.791 275.662,385.851 275.411,385.950 272.551 C 385.990 271.392,386.107 271.191,386.533 271.545 C 387.126 272.037,387.100 272.132,387.224 269.100 C 387.288 267.537,387.434 267.200,388.051 267.200 C 388.691 267.200,388.800 266.884,388.800 265.023 C 388.800 263.119,388.893 262.864,389.541 262.989 C 390.191 263.114,390.291 262.831,390.356 260.684 C 390.433 258.112,390.641 257.495,391.152 258.322 C 391.345 258.634,391.616 258.141,391.875 257.011 C 392.103 256.015,392.150 255.200,391.980 255.200 C 391.450 255.200,391.814 254.025,392.508 253.500 C 392.999 253.128,393.187 252.266,393.244 250.135 C 393.302 247.915,393.441 247.317,393.860 247.478 C 394.157 247.592,394.423 247.486,394.450 247.243 C 394.478 246.999,394.545 246.620,394.600 246.400 C 394.655 246.180,394.723 244.901,394.750 243.557 C 394.794 241.422,394.887 241.148,395.488 241.378 C 395.866 241.524,396.048 241.514,395.891 241.358 C 395.735 241.202,395.772 240.875,395.973 240.633 C 396.174 240.390,396.389 238.717,396.451 236.914 C 396.528 234.658,396.695 233.747,396.987 233.989 C 397.282 234.234,397.452 232.671,397.543 228.871 C 397.615 225.862,397.851 223.130,398.067 222.800 C 398.392 222.305,398.422 222.322,398.243 222.900 C 398.105 223.344,398.236 223.600,398.603 223.600 C 399.100 223.600,399.180 220.306,399.180 200.000 C 399.180 184.007,399.047 176.400,398.767 176.400 C 398.539 176.400,398.456 176.568,398.583 176.772 C 398.709 176.977,398.643 177.250,398.434 177.379 C 397.765 177.793,397.634 177.022,397.574 172.292 C 397.528 168.737,397.384 167.603,396.957 167.439 C 396.651 167.321,396.400 166.939,396.400 166.589 C 396.400 166.239,396.568 166.056,396.772 166.183 C 396.977 166.309,397.275 166.202,397.434 165.945 C 397.605 165.669,397.551 165.583,397.304 165.736 C 396.678 166.123,396.400 165.032,396.400 162.191 C 396.400 160.792,396.217 159.534,395.993 159.396 C 395.770 159.258,395.689 158.979,395.814 158.777 C 395.939 158.575,395.762 158.516,395.421 158.647 C 394.903 158.846,394.800 158.494,394.800 156.523 C 394.800 155.187,394.583 153.926,394.300 153.621 C 393.896 153.186,393.906 153.143,394.352 153.397 C 394.707 153.599,394.846 153.538,394.742 153.226 C 394.653 152.959,394.425 152.769,394.235 152.804 C 393.557 152.930,393.212 151.763,393.206 149.320 C 393.201 147.421,393.043 146.752,392.530 146.465 C 391.845 146.082,391.422 144.800,391.980 144.800 C 392.150 144.800,392.203 144.350,392.098 143.800 C 391.993 143.250,391.726 142.800,391.504 142.800 C 391.272 142.800,391.307 142.553,391.587 142.216 C 391.989 141.732,391.929 141.660,391.236 141.793 C 390.459 141.943,390.400 141.775,390.400 139.400 C 390.400 137.061,390.333 136.859,389.600 137.000 C 388.879 137.139,388.800 136.939,388.800 134.977 C 388.800 133.045,388.707 132.800,387.975 132.800 C 387.429 132.800,387.174 132.563,387.221 132.100 C 387.445 129.898,387.181 128.432,386.600 128.655 C 386.065 128.861,385.702 127.089,385.953 125.500 C 385.979 125.335,385.649 125.200,385.221 125.200 C 384.563 125.200,384.423 124.873,384.321 123.100 C 384.221 121.358,384.081 121.020,383.500 121.118 C 382.942 121.211,382.800 120.945,382.800 119.805 C 382.800 118.903,382.579 118.290,382.200 118.145 C 381.836 118.005,381.600 117.400,381.600 116.604 C 381.600 115.630,381.395 115.240,380.800 115.084 C 380.360 114.969,380.000 114.656,380.000 114.388 C 380.000 114.015,380.142 114.020,380.610 114.408 C 380.945 114.686,381.323 114.811,381.449 114.685 C 381.575 114.559,381.300 114.220,380.839 113.931 C 380.378 113.643,380.000 113.091,380.000 112.704 C 380.000 112.260,379.696 112.000,379.175 112.000 C 378.629 112.000,378.374 111.763,378.421 111.300 C 378.593 109.613,378.385 108.720,377.867 108.919 C 377.573 109.032,377.333 108.871,377.333 108.562 C 377.333 108.253,377.528 107.995,377.767 107.988 C 378.005 107.981,377.881 107.790,377.492 107.563 C 377.102 107.336,376.895 106.970,377.032 106.748 C 377.169 106.527,376.902 106.247,376.440 106.126 C 375.978 106.006,375.600 105.728,375.600 105.511 C 375.600 105.293,375.915 105.235,376.300 105.382 C 376.813 105.578,376.757 105.423,376.091 104.801 C 375.591 104.334,375.287 103.783,375.415 103.576 C 375.543 103.369,375.277 103.200,374.824 103.200 C 374.145 103.200,374.000 102.947,374.000 101.763 C 374.000 100.662,373.813 100.276,373.200 100.116 C 372.760 100.001,372.378 99.568,372.350 99.153 C 372.257 97.752,372.201 97.571,371.771 97.285 C 371.535 97.128,371.225 96.685,371.083 96.300 C 370.941 95.915,370.549 95.600,370.213 95.600 C 369.779 95.600,369.600 95.191,369.600 94.200 C 369.600 93.067,369.448 92.800,368.800 92.800 C 368.283 92.800,368.000 92.533,368.000 92.047 C 368.000 91.618,367.638 91.199,367.160 91.074 C 366.692 90.951,366.438 90.663,366.586 90.423 C 366.983 89.780,366.429 88.400,365.773 88.400 C 365.270 88.400,364.970 87.312,365.175 86.232 C 365.214 86.030,364.961 86.101,364.613 86.389 C 363.768 87.090,363.341 86.598,364.043 85.733 C 364.412 85.279,364.431 85.148,364.100 85.347 C 363.788 85.534,363.600 85.420,363.600 85.042 C 363.600 84.377,361.791 82.400,361.182 82.400 C 360.972 82.400,360.800 81.970,360.800 81.444 C 360.800 80.780,360.587 80.506,360.100 80.544 C 359.715 80.575,359.376 80.330,359.346 80.000 C 359.317 79.670,359.272 79.085,359.246 78.700 C 359.220 78.297,358.880 78.000,358.447 78.000 C 358.030 78.000,357.600 77.643,357.484 77.200 C 357.369 76.760,356.990 76.400,356.642 76.400 C 356.224 76.400,356.042 76.094,356.105 75.500 C 356.177 74.815,356.020 74.631,355.446 74.730 C 354.905 74.823,354.758 74.685,354.928 74.243 C 355.058 73.903,355.001 73.524,354.800 73.400 C 354.599 73.276,354.536 72.910,354.660 72.587 C 354.814 72.185,354.619 72.000,354.043 72.000 C 353.569 72.000,353.200 71.743,353.200 71.414 C 353.200 71.092,352.835 70.633,352.389 70.394 C 351.943 70.155,351.675 69.802,351.795 69.609 C 351.914 69.416,351.649 69.143,351.206 69.002 C 350.763 68.861,350.400 68.488,350.400 68.173 C 350.400 67.858,350.040 67.600,349.600 67.600 C 349.067 67.600,348.800 67.333,348.800 66.800 C 348.800 66.252,348.533 66.000,347.953 66.000 C 347.290 66.000,347.154 65.818,347.326 65.160 C 347.504 64.482,347.397 64.360,346.773 64.523 C 346.209 64.671,346.000 64.519,346.000 63.963 C 346.000 63.271,345.564 63.008,344.673 63.162 C 344.494 63.192,344.404 62.809,344.473 62.309 C 344.576 61.574,344.427 61.418,343.700 61.495 C 342.938 61.576,342.795 61.392,342.768 60.295 C 342.751 59.583,342.646 59.225,342.535 59.500 C 342.181 60.378,341.600 60.037,341.600 58.951 C 341.600 58.049,341.513 57.974,340.980 58.417 C 340.456 58.852,340.324 58.797,340.133 58.066 C 339.999 57.551,339.590 57.200,339.126 57.200 C 338.568 57.200,338.407 57.001,338.561 56.500 C 338.679 56.114,338.411 55.352,337.961 54.800 C 337.227 53.899,337.190 53.889,337.587 54.700 C 337.947 55.434,337.915 55.600,337.414 55.600 C 337.067 55.600,336.800 55.253,336.800 54.800 C 336.800 54.356,336.533 54.000,336.200 54.000 C 335.870 54.000,335.600 53.730,335.600 53.400 C 335.600 53.067,335.244 52.800,334.800 52.800 C 334.267 52.800,334.000 52.533,334.000 52.000 C 334.000 51.467,333.733 51.200,333.200 51.200 C 332.667 51.200,332.400 50.933,332.400 50.400 C 332.400 49.960,332.142 49.600,331.827 49.600 C 331.512 49.600,331.141 49.244,331.003 48.808 C 330.864 48.373,330.624 48.058,330.468 48.108 C 330.311 48.159,329.917 47.975,329.592 47.700 C 329.266 47.425,328.550 46.826,328.000 46.369 C 327.450 45.913,327.225 45.653,327.500 45.793 C 327.775 45.933,328.000 45.857,328.000 45.624 C 328.000 45.229,326.884 45.013,325.677 45.175 C 325.379 45.215,325.207 44.939,325.277 44.532 C 325.345 44.139,325.175 43.791,324.900 43.759 C 324.625 43.727,324.220 43.678,324.000 43.650 C 323.780 43.623,323.600 43.330,323.600 43.000 C 323.600 42.667,323.244 42.400,322.800 42.400 C 322.267 42.400,322.000 42.133,322.000 41.600 C 322.000 41.156,321.733 40.800,321.400 40.800 C 320.230 40.800,319.127 40.059,319.466 39.500 C 319.565 39.335,319.187 39.200,318.624 39.200 C 317.980 39.200,317.600 38.977,317.600 38.600 C 317.600 38.059,317.125 37.822,316.300 37.953 C 316.135 37.979,316.021 37.865,316.047 37.700 C 316.205 36.699,315.872 36.400,314.600 36.400 C 313.549 36.400,313.200 36.230,313.200 35.720 C 313.200 35.191,313.307 35.147,313.680 35.520 C 313.944 35.784,314.317 36.000,314.509 36.000 C 314.700 36.000,314.587 35.730,314.257 35.400 C 313.927 35.070,313.194 34.800,312.629 34.800 C 311.981 34.800,311.600 34.578,311.600 34.200 C 311.600 33.870,311.420 33.578,311.200 33.550 C 310.980 33.523,310.620 33.455,310.400 33.400 C 310.180 33.345,309.730 33.277,309.400 33.250 C 309.070 33.223,308.800 33.026,308.800 32.813 C 308.800 32.599,309.115 32.526,309.500 32.650 C 310.091 32.840,310.106 32.808,309.600 32.444 C 309.270 32.206,308.595 32.009,308.100 32.006 C 307.469 32.002,307.200 31.761,307.200 31.200 C 307.200 30.552,306.933 30.400,305.800 30.400 C 304.786 30.400,304.400 30.224,304.400 29.763 C 304.400 29.412,304.052 29.034,303.628 28.923 C 303.203 28.812,302.759 28.469,302.640 28.161 C 302.521 27.850,301.883 27.600,301.213 27.600 C 300.267 27.600,300.000 27.424,300.000 26.800 C 300.000 26.070,298.721 25.697,297.100 25.953 C 296.935 25.979,296.800 25.640,296.800 25.200 C 296.800 24.555,296.533 24.400,295.427 24.400 C 294.430 24.400,293.988 24.192,293.813 23.641 C 293.642 23.101,293.327 22.946,292.724 23.104 C 292.089 23.270,291.958 23.192,292.203 22.795 C 292.440 22.411,292.350 22.333,291.878 22.515 C 291.519 22.652,291.102 22.565,290.951 22.321 C 290.785 22.052,290.859 21.989,291.138 22.162 C 291.392 22.319,291.600 22.257,291.600 22.024 C 291.600 21.791,291.072 21.600,290.427 21.600 C 289.653 21.600,289.177 21.357,289.028 20.887 C 288.897 20.477,288.353 20.138,287.745 20.087 C 287.164 20.039,286.483 19.720,286.233 19.378 C 285.757 18.727,284.946 18.482,283.100 18.431 C 282.402 18.411,282.000 18.180,282.000 17.800 C 282.000 17.357,281.537 17.200,280.237 17.200 C 278.734 17.200,278.503 17.094,278.664 16.476 C 278.825 15.861,278.565 15.737,276.936 15.653 C 275.188 15.563,274.650 15.275,274.285 14.237 C 274.215 14.037,273.582 13.890,272.879 13.910 C 272.018 13.935,271.600 13.759,271.600 13.373 C 271.600 12.940,271.020 12.800,269.223 12.800 C 267.061 12.800,266.860 12.728,267.000 12.000 C 267.153 11.207,265.964 10.928,263.500 11.179 C 262.636 11.267,262.597 10.837,263.414 10.239 C 263.897 9.886,263.489 9.767,261.514 9.682 C 258.993 9.574,256.800 8.974,256.800 8.391 C 256.800 8.120,255.596 7.979,253.100 7.957 C 252.715 7.953,252.400 7.691,252.400 7.375 C 252.400 6.946,251.850 6.800,250.229 6.800 C 248.498 6.800,248.022 6.658,247.876 6.100 C 247.702 5.433,247.691 5.433,247.646 6.100 C 247.583 7.050,246.528 6.986,246.000 6.000 C 245.645 5.337,245.162 5.200,243.186 5.200 C 240.853 5.200,240.397 4.963,241.195 4.165 C 241.456 3.904,241.285 3.767,240.695 3.761 C 234.367 3.707,232.772 3.569,233.053 3.100 C 233.245 2.781,233.101 2.805,232.654 3.168 C 232.050 3.658,231.972 3.658,232.077 3.168 C 232.177 2.706,231.269 2.579,227.200 2.489 C 221.856 2.371,221.004 2.240,221.402 1.596 C 221.541 1.371,221.823 1.291,222.028 1.417 C 222.232 1.544,222.400 1.461,222.400 1.234 C 222.400 0.955,215.189 0.821,200.138 0.821 C 181.016 0.821,177.983 0.899,178.637 1.378 M88.400 61.221 C 89.442 61.930,91.200 62.828,91.200 62.650 C 91.200 62.428,88.439 60.798,88.077 60.806 C 87.925 60.809,88.070 60.996,88.400 61.221 M29.169 96.100 C 28.914 96.934,28.949 97.555,29.242 97.374 C 29.446 97.248,29.518 96.991,29.402 96.803 C 29.285 96.614,29.507 96.378,29.895 96.277 C 30.561 96.103,30.561 96.090,29.900 96.046 C 29.515 96.021,29.186 96.045,29.169 96.100 M143.200 100.525 C 143.200 100.594,143.785 101.179,144.500 101.825 L 145.800 103.000 144.625 101.700 C 143.530 100.488,143.200 100.216,143.200 100.525 M153.800 110.400 C 155.106 111.720,156.265 112.800,156.375 112.800 C 156.485 112.800,155.506 111.720,154.200 110.400 C 152.894 109.080,151.735 108.000,151.625 108.000 C 151.515 108.000,152.494 109.080,153.800 110.400 M20.528 112.744 C 20.177 113.306,20.237 113.448,20.848 113.494 C 21.261 113.525,21.600 113.302,21.600 112.999 C 21.600 112.127,21.002 111.985,20.528 112.744 M167.800 124.400 C 169.106 125.720,170.265 126.800,170.375 126.800 C 170.485 126.800,169.506 125.720,168.200 124.400 C 166.894 123.080,165.735 122.000,165.625 122.000 C 165.515 122.000,166.494 123.080,167.800 124.400 M170.681 127.581 C 171.015 127.957,171.041 128.349,170.767 128.861 C 170.550 129.268,170.462 129.600,170.572 129.600 C 171.278 129.600,171.523 128.038,170.892 127.561 C 170.313 127.124,170.279 127.127,170.681 127.581 M166.000 134.200 C 164.361 135.850,163.110 137.200,163.220 137.200 C 163.330 137.200,164.761 135.850,166.400 134.200 C 168.039 132.550,169.290 131.200,169.180 131.200 C 169.070 131.200,167.639 132.550,166.000 134.200 M12.097 132.999 C 12.260 133.179,12.193 133.568,11.948 133.863 C 11.606 134.275,11.653 134.400,12.151 134.400 C 12.915 134.400,13.021 133.375,12.300 132.959 C 12.025 132.801,11.933 132.819,12.097 132.999 M161.178 139.500 L 159.800 141.000 161.300 139.622 C 162.125 138.863,162.800 138.188,162.800 138.122 C 162.800 137.816,162.462 138.104,161.178 139.500 M157.978 143.100 L 156.600 144.600 158.100 143.222 C 158.925 142.463,159.600 141.788,159.600 141.722 C 159.600 141.416,159.262 141.704,157.978 143.100 M5.600 154.500 C 5.600 154.812,5.875 155.067,6.211 155.067 C 6.903 155.067,6.800 154.333,6.075 154.092 C 5.814 154.005,5.600 154.188,5.600 154.500 M2.432 168.676 C 2.414 168.938,2.580 169.264,2.801 169.401 C 3.068 169.566,3.063 169.908,2.787 170.424 C 2.501 170.958,2.501 171.200,2.786 171.200 C 3.220 171.200,3.245 171.140,3.396 169.710 C 3.448 169.221,3.350 168.907,3.179 169.013 C 3.008 169.119,2.777 168.979,2.666 168.702 C 2.521 168.343,2.454 168.335,2.432 168.676 M202.175 180.100 L 201.000 181.400 202.300 180.225 C 203.015 179.579,203.600 178.994,203.600 178.925 C 203.600 178.616,203.270 178.888,202.175 180.100 M199.775 182.900 L 198.600 184.200 199.900 183.025 C 201.112 181.930,201.384 181.600,201.075 181.600 C 201.006 181.600,200.421 182.185,199.775 182.900 M224.987 198.775 C 225.321 199.421,225.776 200.061,225.998 200.199 C 226.220 200.336,226.023 199.807,225.561 199.024 C 224.548 197.307,224.135 197.128,224.987 198.775 M238.400 221.600 C 238.849 222.480,239.306 223.200,239.416 223.200 C 239.526 223.200,239.249 222.480,238.800 221.600 C 238.351 220.720,237.894 220.000,237.784 220.000 C 237.674 220.000,237.951 220.720,238.400 221.600 M2.492 229.275 C 2.739 230.017,3.600 230.140,3.600 229.433 C 3.600 229.085,3.315 228.800,2.967 228.800 C 2.618 228.800,2.405 229.014,2.492 229.275 M164.039 233.424 C 163.577 234.207,163.380 234.736,163.602 234.599 C 164.036 234.331,165.334 232.000,165.050 232.000 C 164.956 232.000,164.501 232.641,164.039 233.424 M91.178 239.498 C 90.274 241.301,90.287 241.479,91.220 240.083 C 91.704 239.359,92.017 238.683,91.915 238.582 C 91.813 238.480,91.481 238.892,91.178 239.498 M260.828 267.000 C 260.828 267.220,261.086 267.850,261.400 268.400 C 261.714 268.950,261.972 269.220,261.972 269.000 C 261.972 268.780,261.714 268.150,261.400 267.600 C 261.086 267.050,260.828 266.780,260.828 267.000 M266.828 281.400 C 266.828 281.620,267.086 282.250,267.400 282.800 C 267.714 283.350,267.972 283.620,267.972 283.400 C 267.972 283.180,267.714 282.550,267.400 282.000 C 267.086 281.450,266.828 281.180,266.828 281.400 M18.978 284.035 C 18.831 284.274,18.910 284.670,19.155 284.915 C 19.482 285.242,19.600 285.126,19.600 284.480 C 19.600 283.514,19.392 283.365,18.978 284.035 M56.865 313.817 C 56.195 315.288,56.323 315.602,57.047 314.265 C 57.386 313.640,57.588 313.054,57.496 312.963 C 57.405 312.871,57.121 313.256,56.865 313.817 M47.384 328.427 C 47.239 328.661,47.216 328.949,47.333 329.067 C 47.620 329.353,48.400 328.848,48.400 328.376 C 48.400 327.865,47.709 327.899,47.384 328.427 M50.734 329.469 C 50.368 329.566,49.976 329.885,49.864 330.177 C 49.726 330.537,49.901 330.647,50.402 330.515 C 50.811 330.409,51.241 330.069,51.360 329.761 C 51.478 329.452,51.536 329.221,51.487 329.246 C 51.439 329.272,51.100 329.372,50.734 329.469 M108.629 368.629 C 108.481 369.215,108.438 369.772,108.532 369.866 C 108.627 369.960,108.824 369.558,108.971 368.971 C 109.119 368.385,109.162 367.828,109.068 367.734 C 108.973 367.640,108.776 368.042,108.629 368.629 M118.188 382.020 C 117.807 382.635,118.328 383.032,118.842 382.518 C 119.129 382.231,119.136 382.007,118.862 381.839 C 118.639 381.700,118.335 381.782,118.188 382.020 M256.684 391.200 C 256.569 391.640,256.508 392.000,256.549 392.000 C 256.589 392.000,256.930 391.640,257.307 391.200 C 257.832 390.587,257.863 390.400,257.443 390.400 C 257.141 390.400,256.799 390.760,256.684 391.200 M168.400 396.879 C 168.400 397.495,169.640 397.721,170.127 397.194 C 170.493 396.798,170.487 396.746,170.100 396.965 C 169.825 397.120,169.600 397.087,169.600 396.890 C 169.600 396.694,169.330 396.533,169.000 396.533 C 168.670 396.533,168.400 396.689,168.400 396.879 M230.400 397.000 C 230.400 397.367,230.594 397.602,230.830 397.523 C 231.067 397.445,231.260 397.209,231.260 397.000 C 231.260 396.791,231.067 396.555,230.830 396.477 C 230.594 396.398,230.400 396.633,230.400 397.000 M232.000 397.000 C 232.000 397.367,232.194 397.602,232.430 397.523 C 232.667 397.445,232.860 397.209,232.860 397.000 C 232.860 396.791,232.667 396.555,232.430 396.477 C 232.194 396.398,232.000 396.633,232.000 397.000 M178.400 398.025 C 178.400 398.480,179.475 398.527,179.749 398.083 C 179.856 397.909,179.597 397.740,179.172 397.708 C 178.748 397.676,178.400 397.819,178.400 398.025 M221.335 398.174 C 221.456 398.490,221.340 398.836,221.078 398.943 C 220.815 399.049,220.915 399.151,221.300 399.168 C 221.744 399.188,222.000 398.907,222.000 398.400 C 222.000 397.960,221.801 397.600,221.557 397.600 C 221.314 397.600,221.214 397.858,221.335 398.174 " stroke="none" fill="#455ca3" fill-rule="evenodd"></path><path id="path1" d="M175.273 1.251 C 173.628 1.860,174.366 2.400,176.843 2.400 C 178.801 2.400,179.242 2.286,179.065 1.826 C 178.944 1.510,179.041 1.186,179.282 1.106 C 179.522 1.026,178.915 0.953,177.932 0.944 C 176.950 0.935,175.754 1.073,175.273 1.251 M221.134 1.151 C 221.428 1.337,221.651 1.649,221.629 1.845 C 221.607 2.040,222.492 2.254,223.595 2.321 C 225.493 2.435,226.184 2.008,225.142 1.364 C 224.308 0.849,222.400 0.795,222.400 1.288 C 222.400 1.646,222.285 1.645,221.920 1.280 C 221.656 1.016,221.251 0.803,221.020 0.806 C 220.789 0.809,220.840 0.965,221.134 1.151 M167.096 2.637 C 166.590 3.143,167.236 3.600,168.457 3.600 C 169.246 3.600,169.610 3.426,169.502 3.100 C 169.321 2.548,167.530 2.204,167.096 2.637 M232.133 2.933 C 232.133 3.227,232.343 3.467,232.600 3.467 C 232.857 3.467,233.067 3.227,233.067 2.933 C 233.067 2.640,232.857 2.400,232.600 2.400 C 232.343 2.400,232.133 2.640,232.133 2.933 M158.638 3.895 C 158.476 4.057,158.057 4.192,157.706 4.195 C 157.356 4.198,156.993 4.425,156.901 4.700 C 156.698 5.306,159.097 5.384,160.000 4.800 C 160.330 4.587,160.420 4.407,160.200 4.400 C 159.980 4.393,160.070 4.213,160.400 4.000 C 160.873 3.695,160.781 3.611,159.967 3.606 C 159.398 3.603,158.801 3.733,158.638 3.895 M240.478 3.881 C 240.873 3.979,241.064 4.289,240.935 4.625 C 240.767 5.063,241.078 5.200,242.243 5.200 C 244.211 5.200,243.382 4.155,241.200 3.885 C 240.430 3.790,240.105 3.788,240.478 3.881 M152.404 5.795 C 151.779 6.548,152.997 7.163,153.707 6.453 C 154.044 6.116,154.031 6.000,153.656 6.000 C 153.379 6.000,153.264 5.820,153.400 5.600 C 153.790 4.970,152.953 5.134,152.404 5.795 M246.023 6.043 C 246.532 6.994,247.600 7.033,247.600 6.100 C 247.600 5.637,247.264 5.381,246.609 5.343 C 245.755 5.294,245.674 5.390,246.023 6.043 M145.241 7.499 C 144.699 7.921,144.828 7.986,146.074 7.919 C 146.885 7.875,147.469 7.711,147.372 7.554 C 147.275 7.397,147.421 7.186,147.698 7.085 C 147.974 6.984,147.679 6.923,147.041 6.951 C 146.404 6.978,145.594 7.224,145.241 7.499 M252.400 7.433 C 252.400 7.782,252.625 7.989,252.900 7.895 C 253.175 7.800,253.895 7.863,254.500 8.034 C 255.767 8.391,255.841 8.298,254.971 7.429 C 254.138 6.595,252.400 6.599,252.400 7.433 M142.400 8.328 C 141.515 8.729,141.483 9.600,142.353 9.600 C 142.770 9.600,143.200 9.243,143.316 8.800 C 143.536 7.960,143.384 7.882,142.400 8.328 M256.800 8.336 C 256.800 8.661,258.551 9.609,259.119 9.591 C 259.484 9.580,257.495 8.021,257.100 8.009 C 256.935 8.004,256.800 8.151,256.800 8.336 M136.483 10.300 C 136.201 10.685,136.095 10.747,136.247 10.438 C 136.427 10.072,136.363 9.976,136.062 10.162 C 135.295 10.636,135.542 11.200,136.515 11.200 C 137.143 11.200,137.449 10.949,137.490 10.400 C 137.564 9.414,137.162 9.374,136.483 10.300 M263.200 10.000 C 263.600 10.258,263.633 10.390,263.300 10.394 C 263.025 10.397,262.800 10.580,262.800 10.800 C 262.800 11.343,263.886 11.309,264.228 10.755 C 264.503 10.310,263.753 9.612,263.000 9.612 C 262.780 9.612,262.870 9.787,263.200 10.000 M266.933 12.200 C 266.933 12.570,267.309 12.800,267.916 12.800 C 268.743 12.800,268.820 12.706,268.400 12.200 C 268.126 11.870,267.684 11.600,267.418 11.600 C 267.151 11.600,266.933 11.870,266.933 12.200 M128.400 13.400 C 128.400 13.814,127.985 14.000,127.062 14.000 C 126.232 14.000,125.449 14.304,125.000 14.800 C 124.509 15.342,123.768 15.600,122.701 15.600 C 121.462 15.600,121.080 15.771,120.916 16.400 C 120.759 17.001,120.370 17.200,119.353 17.200 C 118.417 17.200,118.000 17.385,118.000 17.800 C 118.000 18.214,117.584 18.400,116.654 18.400 C 115.914 18.400,114.850 18.760,114.291 19.200 C 113.731 19.640,112.987 20.000,112.637 20.000 C 112.267 20.000,112.000 20.335,112.000 20.800 C 112.000 21.461,111.733 21.600,110.461 21.600 C 109.497 21.600,108.578 21.898,108.000 22.400 C 107.493 22.840,106.835 23.200,106.539 23.200 C 106.242 23.200,106.000 23.470,106.000 23.800 C 106.000 24.219,105.578 24.400,104.600 24.400 C 103.467 24.400,103.200 24.552,103.200 25.200 C 103.200 25.845,102.933 26.000,101.827 26.000 C 100.805 26.000,100.389 26.205,100.200 26.800 C 100.040 27.304,99.595 27.600,98.997 27.600 C 98.474 27.600,97.929 27.791,97.785 28.025 C 97.640 28.258,97.090 28.614,96.561 28.815 C 96.033 29.016,95.600 29.455,95.600 29.790 C 95.600 30.205,95.205 30.400,94.363 30.400 C 93.462 30.400,93.068 30.617,92.916 31.200 C 92.800 31.643,92.370 32.000,91.953 32.000 C 91.539 32.000,91.200 32.270,91.200 32.600 C 91.200 32.930,90.855 33.200,90.433 33.200 C 89.241 33.200,88.400 33.631,88.400 34.243 C 88.400 34.549,88.040 34.800,87.600 34.800 C 87.067 34.800,86.800 35.067,86.800 35.600 C 86.800 36.242,86.533 36.400,85.447 36.400 C 84.430 36.400,84.041 36.599,83.884 37.200 C 83.769 37.640,83.388 38.000,83.037 38.000 C 82.687 38.000,82.400 38.270,82.400 38.600 C 82.400 38.930,82.068 39.200,81.662 39.200 C 81.256 39.200,80.598 39.560,80.200 40.000 C 79.802 40.440,79.144 40.800,78.738 40.800 C 78.267 40.800,78.000 41.089,78.000 41.600 C 78.000 42.133,77.733 42.400,77.200 42.400 C 76.760 42.400,76.400 42.649,76.400 42.953 C 76.400 43.258,76.040 43.601,75.600 43.716 C 75.160 43.831,74.800 44.212,74.800 44.563 C 74.800 44.924,74.468 45.200,74.033 45.200 C 72.870 45.200,72.000 45.626,72.000 46.196 C 72.000 46.477,71.640 46.801,71.200 46.916 C 70.760 47.031,70.400 47.391,70.400 47.716 C 70.400 48.041,70.018 48.407,69.550 48.529 C 68.862 48.709,68.661 50.991,69.333 50.999 C 69.635 51.003,81.393 57.022,84.351 58.688 C 86.414 59.849,88.154 60.800,88.216 60.800 C 88.668 60.800,100.488 68.156,106.575 72.226 C 114.082 77.246,114.736 77.710,121.914 83.116 C 136.414 94.036,146.297 102.670,160.738 117.032 C 173.440 129.665,172.693 127.691,167.001 133.593 C 160.595 140.235,150.000 152.328,145.600 158.020 C 130.430 177.642,119.225 193.362,110.961 206.613 C 103.331 218.849,102.783 219.760,96.342 230.928 C 93.954 235.069,92.000 238.547,92.000 238.658 C 92.000 238.770,91.307 240.062,90.460 241.530 C 86.795 247.884,72.800 275.669,72.800 276.591 C 72.800 276.661,71.810 278.817,70.600 281.382 C 69.390 283.948,68.400 286.151,68.400 286.279 C 68.400 286.408,68.047 287.252,67.616 288.156 C 67.185 289.060,66.085 291.600,65.173 293.800 C 64.260 296.000,63.194 298.520,62.804 299.400 C 62.413 300.280,61.683 302.170,61.180 303.600 C 60.676 305.030,60.137 306.380,59.981 306.600 C 59.825 306.820,59.564 307.450,59.400 308.000 C 59.236 308.550,58.516 310.530,57.800 312.400 C 57.084 314.270,55.738 317.960,54.809 320.600 C 51.966 328.682,51.211 330.310,50.190 330.567 C 49.061 330.850,49.277 332.400,50.447 332.400 C 50.933 332.400,51.200 332.683,51.200 333.200 C 51.200 333.733,51.467 334.000,52.000 334.000 C 52.533 334.000,52.800 334.267,52.800 334.800 C 52.800 335.244,53.067 335.600,53.400 335.600 C 53.730 335.600,54.000 335.858,54.000 336.173 C 54.000 336.488,54.360 336.860,54.800 337.000 C 55.240 337.140,55.600 337.512,55.600 337.827 C 55.600 338.142,55.960 338.400,56.400 338.400 C 56.933 338.400,57.200 338.667,57.200 339.200 C 57.200 339.644,57.467 340.000,57.800 340.000 C 58.130 340.000,58.400 340.287,58.400 340.637 C 58.400 340.988,58.760 341.369,59.200 341.484 C 59.640 341.599,60.000 341.942,60.000 342.247 C 60.000 342.551,60.360 342.800,60.800 342.800 C 61.333 342.800,61.600 343.067,61.600 343.600 C 61.600 344.040,61.858 344.400,62.173 344.400 C 62.488 344.400,62.860 344.760,63.000 345.200 C 63.140 345.640,63.512 346.000,63.827 346.000 C 64.142 346.000,64.400 346.270,64.400 346.600 C 64.400 346.933,64.756 347.200,65.200 347.200 C 65.733 347.200,66.000 347.467,66.000 348.000 C 66.000 348.533,66.267 348.800,66.800 348.800 C 67.333 348.800,67.600 349.067,67.600 349.600 C 67.600 350.044,67.867 350.400,68.200 350.400 C 68.530 350.400,68.800 350.586,68.800 350.813 C 68.800 351.039,69.106 351.343,69.480 351.486 C 69.854 351.630,70.792 352.434,71.564 353.273 C 72.406 354.190,73.334 354.800,73.884 354.800 C 74.455 354.800,74.800 355.040,74.800 355.437 C 74.800 355.788,75.160 356.169,75.600 356.284 C 76.040 356.399,76.400 356.742,76.400 357.047 C 76.400 357.351,76.760 357.600,77.200 357.600 C 77.650 357.600,78.000 357.867,78.000 358.210 C 78.000 358.545,78.412 358.977,78.916 359.168 C 79.420 359.360,80.073 359.805,80.365 360.158 C 80.658 360.511,81.236 360.800,81.649 360.800 C 82.062 360.800,82.400 361.070,82.400 361.400 C 82.400 361.730,82.664 362.000,82.986 362.000 C 83.308 362.000,83.765 362.360,84.000 362.800 C 84.280 363.324,84.838 363.600,85.614 363.600 C 86.533 363.600,86.800 363.780,86.800 364.400 C 86.800 364.933,87.067 365.200,87.600 365.200 C 88.040 365.200,88.400 365.451,88.400 365.757 C 88.400 366.369,89.241 366.800,90.433 366.800 C 90.855 366.800,91.200 367.070,91.200 367.400 C 91.200 367.730,91.539 368.000,91.953 368.000 C 92.370 368.000,92.800 368.357,92.916 368.800 C 93.068 369.383,93.462 369.600,94.363 369.600 C 95.205 369.600,95.600 369.795,95.600 370.210 C 95.600 370.545,96.033 370.984,96.561 371.185 C 97.090 371.386,97.640 371.742,97.785 371.975 C 97.929 372.209,98.443 372.400,98.927 372.400 C 99.411 372.400,100.032 372.760,100.307 373.200 C 100.626 373.710,101.240 374.000,102.003 374.000 C 102.933 374.000,103.200 374.178,103.200 374.800 C 103.200 375.478,103.467 375.600,104.951 375.600 C 106.982 375.600,107.429 375.192,107.798 373.000 C 108.268 370.211,110.511 360.887,112.609 353.000 C 114.065 347.527,114.728 345.263,117.000 338.000 C 117.310 337.010,117.921 335.030,118.359 333.600 C 119.526 329.788,124.028 317.059,125.998 312.000 C 126.470 310.790,127.091 309.170,127.380 308.400 C 128.721 304.822,130.866 299.477,131.205 298.871 C 131.411 298.502,132.042 297.030,132.608 295.600 C 133.173 294.170,133.792 292.640,133.982 292.200 C 134.853 290.186,136.058 287.521,137.564 284.276 C 138.464 282.338,139.200 280.652,139.200 280.529 C 139.200 280.042,149.877 258.741,153.188 252.622 C 158.713 242.411,166.939 228.360,170.413 223.200 C 171.227 221.990,173.438 218.660,175.325 215.800 C 180.484 207.983,183.334 203.898,187.324 198.600 C 195.970 187.118,207.103 174.000,208.202 174.000 C 209.037 174.000,218.050 186.852,223.350 195.600 C 223.949 196.590,225.619 199.290,227.060 201.600 C 234.271 213.159,241.676 226.551,249.399 242.000 C 252.771 248.745,253.831 250.949,256.608 257.000 C 257.113 258.100,258.194 260.440,259.009 262.200 C 259.825 263.960,261.075 266.840,261.787 268.600 C 262.499 270.360,263.662 273.150,264.371 274.800 C 265.081 276.450,265.893 278.340,266.176 279.000 C 266.459 279.660,267.099 281.280,267.599 282.600 C 268.098 283.920,268.655 285.360,268.836 285.800 C 270.121 288.929,270.794 290.701,273.420 297.869 C 276.390 305.975,280.147 317.096,282.181 323.800 C 282.782 325.780,283.516 328.120,283.812 329.000 C 284.382 330.694,285.422 334.256,286.791 339.200 C 287.248 340.850,287.888 343.100,288.213 344.200 C 288.539 345.300,288.971 346.920,289.174 347.800 C 289.377 348.680,290.438 353.000,291.531 357.400 C 292.624 361.800,293.923 367.200,294.417 369.400 C 294.911 371.600,295.570 373.608,295.882 373.862 C 296.257 374.167,296.305 374.412,296.024 374.585 C 295.791 374.729,295.600 375.017,295.600 375.224 C 295.600 375.879,296.769 375.631,297.600 374.800 C 298.040 374.360,298.687 374.000,299.037 374.000 C 299.388 374.000,299.769 373.640,299.884 373.200 C 300.041 372.599,300.430 372.400,301.447 372.400 C 302.383 372.400,302.800 372.215,302.800 371.800 C 302.800 371.470,303.117 371.200,303.504 371.200 C 303.891 371.200,304.432 370.840,304.707 370.400 C 304.990 369.948,305.640 369.600,306.203 369.600 C 306.933 369.600,307.200 369.386,307.200 368.800 C 307.200 368.176,307.467 368.000,308.413 368.000 C 309.121 368.000,309.721 367.751,309.855 367.400 C 309.982 367.070,310.342 366.800,310.655 366.800 C 310.969 366.800,311.331 366.523,311.461 366.185 C 311.591 365.847,312.305 365.316,313.049 365.006 C 313.792 364.695,314.400 364.252,314.400 364.020 C 314.400 363.789,314.694 363.600,315.054 363.600 C 315.740 363.600,317.600 361.832,317.600 361.179 C 317.600 360.971,318.138 360.800,318.797 360.800 C 319.560 360.800,320.174 360.510,320.493 360.000 C 320.768 359.560,321.219 359.200,321.496 359.200 C 321.773 359.200,322.000 358.840,322.000 358.400 C 322.000 357.946,322.267 357.600,322.617 357.600 C 322.956 357.600,323.451 357.423,323.717 357.206 C 325.575 355.691,326.695 354.902,327.300 354.681 C 327.685 354.540,328.000 354.149,328.000 353.813 C 328.000 353.467,328.348 353.200,328.800 353.200 C 329.240 353.200,329.600 352.942,329.600 352.627 C 329.600 352.312,329.960 351.940,330.400 351.800 C 330.840 351.660,331.200 351.288,331.200 350.973 C 331.200 350.658,331.470 350.400,331.800 350.400 C 332.133 350.400,332.400 350.044,332.400 349.600 C 332.400 349.067,332.667 348.800,333.200 348.800 C 333.733 348.800,334.000 348.533,334.000 348.000 C 334.000 347.479,334.267 347.200,334.766 347.200 C 335.187 347.200,336.180 346.570,336.973 345.800 C 337.766 345.030,338.511 344.400,338.629 344.400 C 339.121 344.400,346.000 337.109,346.000 336.588 C 346.000 336.276,346.546 335.738,347.213 335.393 C 348.012 334.980,348.508 334.361,348.663 333.583 C 348.825 332.777,349.139 332.400,349.650 332.400 C 350.063 332.400,350.400 332.130,350.400 331.800 C 350.400 331.470,350.658 331.200,350.973 331.200 C 351.288 331.200,351.660 330.840,351.800 330.400 C 351.940 329.960,352.312 329.600,352.627 329.600 C 352.942 329.600,353.200 329.240,353.200 328.800 C 353.200 328.348,353.467 328.000,353.813 328.000 C 354.149 328.000,354.540 327.685,354.681 327.300 C 354.902 326.695,355.691 325.575,357.206 323.717 C 357.837 322.943,357.661 322.000,356.886 322.000 C 356.249 322.000,354.000 317.358,354.000 316.042 C 354.000 314.961,346.139 292.038,343.012 284.000 C 340.331 277.110,337.914 271.019,337.377 269.800 C 337.086 269.140,335.243 264.910,333.281 260.400 C 326.723 245.323,315.514 222.619,309.548 212.330 C 308.697 210.862,308.000 209.564,308.000 209.445 C 308.000 209.180,298.492 192.707,296.431 189.400 C 295.608 188.080,293.887 185.290,292.606 183.200 C 290.238 179.335,289.417 178.029,285.569 172.005 C 282.725 167.555,273.268 153.442,271.009 150.281 C 261.132 136.453,254.200 127.150,247.252 118.400 C 243.007 113.055,235.330 103.669,234.818 103.200 C 234.698 103.090,233.702 101.920,232.604 100.600 C 231.507 99.280,230.427 98.000,230.204 97.757 C 229.982 97.513,228.630 95.984,227.200 94.360 C 197.149 60.229,166.173 33.307,138.800 17.532 C 133.361 14.398,133.200 14.282,133.200 13.504 C 133.200 12.910,132.824 12.800,130.800 12.800 C 128.933 12.800,128.400 12.933,128.400 13.400 M271.600 13.413 C 271.600 13.736,271.870 14.000,272.200 14.000 C 272.530 14.000,272.800 13.839,272.800 13.643 C 272.800 13.446,272.530 13.182,272.200 13.055 C 271.835 12.915,271.600 13.055,271.600 13.413 M274.525 14.533 C 274.676 14.936,274.800 15.341,274.800 15.433 C 274.800 15.525,275.040 15.600,275.333 15.600 C 275.627 15.600,275.867 15.330,275.867 15.000 C 275.867 14.670,275.778 14.488,275.670 14.597 C 275.562 14.705,275.198 14.570,274.862 14.297 C 274.346 13.878,274.293 13.915,274.525 14.533 M278.682 16.410 C 278.518 17.035,278.676 17.200,279.437 17.200 C 280.588 17.200,280.696 16.587,279.644 16.024 C 279.035 15.698,278.848 15.773,278.682 16.410 M285.376 19.387 C 284.717 19.886,284.699 19.976,285.257 19.987 C 285.619 19.994,286.018 19.730,286.145 19.400 C 286.431 18.655,286.347 18.653,285.376 19.387 M293.844 23.771 C 294.128 24.510,295.345 24.635,295.100 23.900 C 295.009 23.625,294.634 23.342,294.268 23.271 C 293.804 23.181,293.676 23.332,293.844 23.771 M296.806 25.015 C 296.802 25.554,297.080 25.851,297.626 25.892 C 298.080 25.926,298.390 25.771,298.316 25.547 C 298.241 25.323,298.025 25.169,297.835 25.204 C 297.645 25.239,297.337 25.028,297.151 24.734 C 296.902 24.341,296.811 24.415,296.806 25.015 M304.286 29.607 C 304.400 30.043,304.742 30.400,305.047 30.400 C 305.849 30.400,305.725 29.695,304.839 29.221 C 304.192 28.875,304.110 28.932,304.286 29.607 M309.067 32.267 C 308.595 32.738,308.780 33.101,309.600 33.316 C 310.040 33.431,310.400 33.362,310.400 33.163 C 310.400 32.963,310.085 32.797,309.700 32.794 C 309.102 32.789,309.087 32.731,309.600 32.400 C 309.930 32.187,310.005 32.009,309.767 32.006 C 309.528 32.003,309.213 32.120,309.067 32.267 M311.600 34.213 C 311.600 34.536,311.870 34.800,312.200 34.800 C 312.530 34.800,312.800 34.639,312.800 34.443 C 312.800 34.246,312.530 33.982,312.200 33.855 C 311.835 33.715,311.600 33.855,311.600 34.213 M313.200 35.867 C 313.200 36.162,313.601 36.386,314.100 36.368 C 314.595 36.351,314.774 36.246,314.498 36.134 C 314.221 36.023,314.078 35.797,314.180 35.633 C 314.282 35.468,314.103 35.333,313.782 35.333 C 313.462 35.333,313.200 35.573,313.200 35.867 M317.600 38.600 C 317.600 38.930,317.892 39.200,318.249 39.200 C 318.780 39.200,318.808 39.091,318.400 38.600 C 318.126 38.270,317.834 38.000,317.751 38.000 C 317.668 38.000,317.600 38.270,317.600 38.600 M319.463 39.504 C 319.365 39.667,319.526 40.023,319.821 40.296 C 320.116 40.569,320.438 40.659,320.537 40.496 C 320.635 40.333,320.474 39.977,320.179 39.704 C 319.884 39.431,319.562 39.341,319.463 39.504 M323.600 42.924 C 323.600 43.249,323.883 43.623,324.229 43.756 C 324.668 43.924,324.819 43.796,324.729 43.332 C 324.565 42.485,323.600 42.137,323.600 42.924 M325.388 44.420 C 325.007 45.035,325.528 45.432,326.042 44.918 C 326.329 44.631,326.336 44.407,326.062 44.239 C 325.839 44.100,325.535 44.182,325.388 44.420 M334.000 52.013 C 334.000 52.446,334.270 52.800,334.600 52.800 C 334.930 52.800,335.200 52.549,335.200 52.243 C 335.200 51.936,334.930 51.582,334.600 51.455 C 334.192 51.299,334.000 51.477,334.000 52.013 M335.600 53.400 C 335.600 53.730,335.870 54.000,336.200 54.000 C 336.540 54.000,336.800 54.359,336.800 54.829 C 336.800 55.793,338.033 55.769,338.297 54.800 C 338.416 54.364,338.365 54.335,338.112 54.692 C 337.861 55.046,337.566 54.850,337.059 53.992 C 336.302 52.711,335.600 52.426,335.600 53.400 M338.646 56.224 C 338.292 57.147,338.320 57.200,339.153 57.200 C 339.582 57.200,340.001 57.562,340.126 58.040 C 340.247 58.503,340.538 58.762,340.773 58.617 C 341.288 58.299,341.349 57.158,340.844 57.300 C 340.647 57.355,340.128 56.991,339.689 56.492 C 339.006 55.713,338.857 55.675,338.646 56.224 M57.867 59.067 C 57.484 59.449,57.538 60.000,57.957 60.000 C 58.154 60.000,58.418 59.730,58.545 59.400 C 58.779 58.790,58.353 58.581,57.867 59.067 M341.600 59.400 C 341.600 59.730,341.761 60.000,341.957 60.000 C 342.154 60.000,342.418 59.730,342.545 59.400 C 342.685 59.035,342.545 58.800,342.187 58.800 C 341.864 58.800,341.600 59.070,341.600 59.400 M342.800 60.800 C 342.800 61.240,342.875 61.600,342.967 61.600 C 343.504 61.600,344.400 61.058,344.400 60.734 C 344.400 60.524,344.220 60.464,344.000 60.600 C 343.780 60.736,343.600 60.657,343.600 60.424 C 343.600 60.191,343.420 60.000,343.200 60.000 C 342.980 60.000,342.800 60.360,342.800 60.800 M344.649 61.885 C 344.299 62.235,344.338 63.210,344.700 63.153 C 345.539 63.020,345.957 63.275,346.072 63.990 C 346.164 64.560,346.358 64.681,346.766 64.425 C 347.222 64.140,347.094 63.833,346.115 62.853 C 345.445 62.184,344.786 61.748,344.649 61.885 M347.200 65.371 C 347.200 65.742,347.542 66.000,348.033 66.000 C 349.008 66.000,348.870 65.065,347.867 64.871 C 347.472 64.794,347.200 64.998,347.200 65.371 M354.984 74.027 C 354.839 74.261,354.816 74.549,354.933 74.667 C 355.220 74.953,356.000 74.448,356.000 73.976 C 356.000 73.465,355.309 73.499,354.984 74.027 M356.275 75.458 C 355.792 75.941,355.977 76.301,356.823 76.522 C 357.426 76.680,357.614 76.567,357.523 76.102 C 357.386 75.392,356.696 75.037,356.275 75.458 M41.455 78.600 C 41.582 78.930,41.816 79.200,41.976 79.200 C 42.136 79.200,42.267 78.930,42.267 78.600 C 42.267 78.270,42.032 78.000,41.746 78.000 C 41.447 78.000,41.323 78.256,41.455 78.600 M359.390 79.615 C 358.987 80.268,359.883 81.077,360.417 80.543 C 360.706 80.254,360.656 79.978,360.253 79.644 C 359.823 79.287,359.598 79.280,359.390 79.615 M39.600 80.200 C 39.600 80.530,39.870 80.800,40.200 80.800 C 40.530 80.800,40.800 80.530,40.800 80.200 C 40.800 79.870,40.530 79.600,40.200 79.600 C 39.870 79.600,39.600 79.870,39.600 80.200 M360.800 81.800 C 360.800 82.130,361.092 82.400,361.449 82.400 C 361.980 82.400,362.008 82.291,361.600 81.800 C 361.326 81.470,361.034 81.200,360.951 81.200 C 360.868 81.200,360.800 81.470,360.800 81.800 M36.400 84.800 C 36.400 85.020,36.670 85.200,37.000 85.200 C 37.330 85.200,37.600 85.020,37.600 84.800 C 37.600 84.580,37.330 84.400,37.000 84.400 C 36.670 84.400,36.400 84.580,36.400 84.800 M363.709 86.017 C 363.673 86.493,363.907 86.727,364.383 86.691 C 364.784 86.661,365.028 86.417,364.925 86.149 C 364.612 85.333,363.767 85.241,363.709 86.017 M366.661 90.186 C 366.426 90.798,366.719 91.200,367.400 91.200 C 368.026 91.200,367.998 90.085,367.366 89.842 C 367.091 89.737,366.774 89.892,366.661 90.186 M30.562 93.262 C 30.385 93.548,30.452 93.615,30.738 93.438 C 30.992 93.281,31.200 93.343,31.200 93.576 C 31.200 93.809,31.380 94.000,31.600 94.000 C 31.820 94.000,32.000 93.730,32.000 93.400 C 32.000 92.694,30.974 92.595,30.562 93.262 M369.600 94.953 C 369.600 95.258,369.957 95.600,370.393 95.714 C 371.068 95.890,371.125 95.808,370.779 95.161 C 370.305 94.275,369.600 94.151,369.600 94.953 M27.867 97.467 C 27.379 97.954,27.591 98.800,28.200 98.800 C 28.533 98.800,28.800 98.444,28.800 98.000 C 28.800 97.203,28.374 96.960,27.867 97.467 M26.251 101.283 C 26.525 101.727,27.600 101.680,27.600 101.225 C 27.600 101.019,27.252 100.876,26.828 100.908 C 26.403 100.940,26.144 101.109,26.251 101.283 M374.000 102.400 C 374.000 102.938,374.267 103.200,374.814 103.200 C 375.504 103.200,375.563 103.078,375.200 102.400 C 374.965 101.960,374.598 101.600,374.386 101.600 C 374.174 101.600,374.000 101.960,374.000 102.400 M376.100 105.065 C 375.435 105.333,375.459 106.000,376.133 106.000 C 376.427 106.000,376.667 105.730,376.667 105.400 C 376.667 105.070,376.652 104.814,376.633 104.832 C 376.615 104.849,376.375 104.954,376.100 105.065 M377.800 107.906 C 377.147 108.386,377.151 109.194,377.805 108.943 C 378.132 108.817,378.400 108.464,378.400 108.157 C 378.400 107.521,378.351 107.501,377.800 107.906 M378.667 110.667 C 378.116 111.217,378.429 112.000,379.200 112.000 C 379.640 112.000,380.000 111.820,380.000 111.600 C 380.000 111.380,379.809 111.200,379.576 111.200 C 379.343 111.200,379.264 111.020,379.400 110.800 C 379.675 110.355,379.085 110.248,378.667 110.667 M380.000 114.409 C 380.000 114.638,380.278 114.932,380.617 115.062 C 381.555 115.422,381.666 115.033,380.782 114.481 C 380.287 114.172,380.000 114.146,380.000 114.409 M381.600 117.324 C 381.600 117.649,381.883 118.023,382.229 118.156 C 382.668 118.324,382.819 118.196,382.729 117.732 C 382.565 116.885,381.600 116.537,381.600 117.324 M17.200 118.600 C 17.200 118.967,17.393 119.202,17.630 119.123 C 17.866 119.044,18.060 118.809,18.060 118.600 C 18.060 118.391,17.866 118.156,17.630 118.077 C 17.393 117.998,17.200 118.233,17.200 118.600 M382.800 120.375 C 382.800 120.894,383.055 121.131,383.570 121.092 C 384.181 121.046,384.260 120.887,383.956 120.317 C 383.449 119.370,382.800 119.402,382.800 120.375 M15.969 120.967 C 15.526 121.450,15.835 122.400,16.435 122.400 C 16.910 122.400,17.200 122.122,17.200 121.667 C 17.200 121.127,16.295 120.612,15.969 120.967 M384.446 124.300 C 384.411 124.993,384.607 125.189,385.300 125.154 C 385.938 125.121,386.003 125.055,385.525 124.929 C 385.153 124.831,384.769 124.447,384.671 124.075 C 384.545 123.597,384.479 123.662,384.446 124.300 M386.000 127.800 C 386.000 128.476,386.183 128.806,386.500 128.700 C 386.775 128.608,387.000 128.203,387.000 127.800 C 387.000 127.397,386.775 126.992,386.500 126.900 C 386.183 126.794,386.000 127.124,386.000 127.800 M12.800 129.000 C 12.800 129.330,13.070 129.600,13.400 129.600 C 13.730 129.600,14.000 129.330,14.000 129.000 C 14.000 128.670,13.730 128.400,13.400 128.400 C 13.070 128.400,12.800 128.670,12.800 129.000 M387.448 131.486 C 386.913 132.020,387.241 132.800,388.000 132.800 C 388.440 132.800,388.800 132.697,388.800 132.571 C 388.800 132.130,387.692 131.241,387.448 131.486 M388.832 136.265 C 388.812 136.809,389.018 137.097,389.388 137.043 C 390.237 136.918,390.650 136.400,389.900 136.400 C 389.552 136.400,389.176 136.175,389.065 135.900 C 388.954 135.625,388.849 135.789,388.832 136.265 M10.162 137.293 C 9.695 137.840,9.647 137.997,10.037 137.697 C 10.387 137.427,10.792 137.325,10.937 137.470 C 11.082 137.615,11.200 137.433,11.200 137.067 C 11.200 136.196,11.074 136.224,10.162 137.293 M390.432 140.900 C 390.412 141.579,390.591 141.962,390.900 141.900 C 391.175 141.845,391.355 142.025,391.300 142.300 C 391.245 142.575,391.399 142.800,391.643 142.800 C 391.886 142.800,391.976 142.515,391.843 142.167 C 391.709 141.819,391.600 141.269,391.600 140.944 C 391.600 140.619,391.435 140.455,391.234 140.579 C 391.033 140.703,390.777 140.579,390.666 140.302 C 390.554 140.026,390.449 140.295,390.432 140.900 M8.600 142.000 C 8.308 142.472,8.687 143.200,9.224 143.200 C 9.431 143.200,9.600 142.840,9.600 142.400 C 9.600 141.556,9.018 141.324,8.600 142.000 M391.765 145.445 C 391.943 146.652,393.200 146.981,393.200 145.820 C 393.200 145.082,392.988 144.800,392.435 144.800 C 391.960 144.800,391.707 145.044,391.765 145.445 M6.952 146.581 C 6.676 147.299,7.123 148.095,7.628 147.783 C 8.135 147.470,8.101 146.000,7.587 146.000 C 7.361 146.000,7.075 146.261,6.952 146.581 M393.206 151.497 C 393.216 151.991,393.763 152.593,394.300 152.700 C 395.072 152.854,394.892 152.250,394.000 151.693 C 393.560 151.418,393.203 151.330,393.206 151.497 M394.800 157.643 C 394.800 158.602,394.942 158.831,395.421 158.647 C 395.762 158.516,395.939 158.575,395.814 158.777 C 395.689 158.979,395.770 159.258,395.993 159.396 C 396.508 159.714,396.516 158.758,396.010 157.426 C 395.474 156.016,394.800 156.137,394.800 157.643 M4.260 158.303 C 4.157 158.470,3.973 159.325,3.852 160.203 C 3.730 161.081,3.727 161.485,3.845 161.100 C 3.962 160.715,4.315 160.400,4.629 160.400 C 4.997 160.400,5.200 159.973,5.200 159.200 C 5.200 158.085,4.693 157.602,4.260 158.303 M396.562 166.155 C 396.301 166.835,396.651 167.600,397.224 167.600 C 397.728 167.600,397.706 166.113,397.197 165.798 C 396.976 165.661,396.690 165.822,396.562 166.155 M2.800 168.800 C 2.800 169.020,2.800 169.290,2.800 169.400 C 2.800 169.897,3.359 169.557,3.440 169.011 C 3.489 168.675,3.365 168.400,3.165 168.400 C 2.964 168.400,2.800 168.580,2.800 168.800 M397.717 175.600 C 397.772 176.794,397.968 177.366,398.300 177.300 C 398.575 177.245,398.800 177.410,398.800 177.667 C 398.800 177.923,398.916 178.018,399.057 177.876 C 399.198 177.735,399.086 177.345,398.808 177.010 C 398.494 176.632,398.463 176.400,398.726 176.400 C 398.959 176.400,399.123 176.040,399.090 175.600 C 399.057 175.160,398.813 174.800,398.548 174.800 C 398.283 174.800,397.969 174.575,397.850 174.300 C 397.731 174.025,397.671 174.610,397.717 175.600 M1.216 177.369 C 0.613 178.497,0.926 180.209,1.797 180.543 C 2.289 180.732,2.400 180.373,2.400 178.587 C 2.400 176.221,2.033 175.843,1.216 177.369 M1.400 220.000 C 1.536 220.220,1.467 220.400,1.248 220.400 C 0.529 220.400,0.964 222.519,1.706 222.627 C 2.264 222.709,2.400 222.422,2.400 221.165 C 2.400 220.014,2.235 219.600,1.776 219.600 C 1.433 219.600,1.264 219.780,1.400 220.000 M397.843 223.033 C 397.199 224.710,397.560 226.960,398.356 226.240 C 399.183 225.492,399.295 223.601,398.513 223.600 C 398.244 223.600,398.128 223.331,398.255 223.000 C 398.382 222.670,398.396 222.400,398.286 222.400 C 398.176 222.400,397.976 222.685,397.843 223.033 M2.505 230.733 C 2.535 231.137,2.794 231.467,3.080 231.467 C 3.366 231.467,3.600 231.137,3.600 230.733 C 3.600 230.330,3.341 230.000,3.025 230.000 C 2.709 230.000,2.475 230.330,2.505 230.733 M397.246 233.124 C 397.217 233.713,397.033 233.944,396.738 233.762 C 396.441 233.578,396.385 233.653,396.583 233.973 C 397.019 234.678,397.723 233.872,397.484 232.942 C 397.330 232.345,397.284 232.381,397.246 233.124 M3.832 239.797 C 4.213 242.329,5.360 243.129,5.125 240.700 C 5.056 239.985,4.827 239.458,4.616 239.530 C 4.404 239.601,4.087 239.331,3.911 238.930 C 3.726 238.506,3.692 238.870,3.832 239.797 M395.999 240.600 C 395.947 240.820,395.924 241.129,395.948 241.286 C 395.971 241.443,395.723 241.468,395.395 241.343 C 394.945 241.170,394.800 241.425,394.800 242.391 C 394.800 243.234,394.970 243.610,395.300 243.500 C 395.575 243.408,395.800 243.078,395.800 242.767 C 395.800 242.455,395.953 242.088,396.139 241.952 C 396.326 241.816,396.392 241.366,396.286 240.952 C 396.180 240.538,396.051 240.380,395.999 240.600 M394.400 247.243 C 394.400 247.486,394.167 247.596,393.882 247.487 C 393.581 247.371,393.340 247.600,393.308 248.031 C 393.260 248.669,393.362 248.706,394.026 248.291 C 394.713 247.862,395.122 246.800,394.600 246.800 C 394.490 246.800,394.400 246.999,394.400 247.243 M6.962 252.555 C 6.718 253.191,7.041 254.000,7.538 254.000 C 7.977 254.000,8.005 252.450,7.572 252.183 C 7.364 252.054,7.090 252.222,6.962 252.555 M392.428 253.574 C 391.547 254.132,391.552 255.200,392.435 255.200 C 392.984 255.200,393.200 254.918,393.200 254.200 C 393.200 253.073,393.209 253.080,392.428 253.574 M8.600 257.200 C 8.308 257.672,8.687 258.400,9.224 258.400 C 9.431 258.400,9.600 258.040,9.600 257.600 C 9.600 256.756,9.018 256.524,8.600 257.200 M390.400 258.987 C 390.400 259.701,390.567 259.911,391.000 259.745 C 391.684 259.482,391.684 259.484,391.357 258.633 C 390.985 257.664,390.400 257.881,390.400 258.987 M10.162 262.707 C 11.074 263.776,11.200 263.804,11.200 262.933 C 11.200 262.567,11.082 262.385,10.937 262.530 C 10.792 262.675,10.387 262.573,10.037 262.303 C 9.647 262.003,9.695 262.160,10.162 262.707 M388.832 263.735 C 388.849 264.211,388.954 264.375,389.065 264.100 C 389.176 263.825,389.552 263.600,389.900 263.600 C 390.650 263.600,390.237 263.082,389.388 262.957 C 389.018 262.903,388.812 263.191,388.832 263.735 M11.200 266.400 C 11.200 266.620,11.560 266.800,12.000 266.800 C 12.440 266.800,12.800 266.620,12.800 266.400 C 12.800 266.180,12.440 266.000,12.000 266.000 C 11.560 266.000,11.200 266.180,11.200 266.400 M387.200 267.733 C 387.200 268.596,387.654 268.803,388.248 268.210 C 389.004 267.454,388.941 267.200,388.000 267.200 C 387.560 267.200,387.200 267.440,387.200 267.733 M12.800 271.000 C 12.800 271.330,13.040 271.600,13.333 271.600 C 13.627 271.600,13.867 271.330,13.867 271.000 C 13.867 270.670,13.627 270.400,13.333 270.400 C 13.040 270.400,12.800 270.670,12.800 271.000 M386.000 272.300 C 386.000 272.895,386.192 273.203,386.500 273.100 C 387.182 272.873,387.219 271.333,386.542 271.333 C 386.236 271.333,386.000 271.753,386.000 272.300 M16.400 278.224 C 16.400 278.609,16.209 278.737,15.900 278.559 C 15.625 278.401,15.540 278.426,15.712 278.614 C 16.291 279.251,17.037 279.110,17.094 278.353 C 17.125 277.939,16.981 277.600,16.775 277.600 C 16.569 277.600,16.400 277.881,16.400 278.224 M382.800 279.600 C 382.800 280.040,382.974 280.400,383.186 280.400 C 383.398 280.400,383.765 280.040,384.000 279.600 C 384.363 278.922,384.304 278.800,383.614 278.800 C 383.067 278.800,382.800 279.062,382.800 279.600 M381.600 282.633 C 381.600 282.982,381.814 283.195,382.075 283.108 C 382.817 282.861,382.940 282.000,382.233 282.000 C 381.885 282.000,381.600 282.285,381.600 282.633 M380.000 285.685 C 380.000 286.646,381.054 286.600,381.309 285.628 C 381.458 285.056,381.315 284.871,380.755 284.913 C 380.318 284.946,380.000 285.271,380.000 285.685 M378.400 288.533 C 378.400 289.396,378.854 289.603,379.448 289.010 C 380.204 288.254,380.141 288.000,379.200 288.000 C 378.760 288.000,378.400 288.240,378.400 288.533 M375.600 294.567 C 375.600 294.915,375.885 295.200,376.233 295.200 C 376.940 295.200,376.817 294.339,376.075 294.092 C 375.814 294.005,375.600 294.218,375.600 294.567 M374.273 296.660 C 373.847 297.086,373.952 298.400,374.413 298.400 C 375.004 298.400,375.376 297.216,374.926 296.766 C 374.718 296.558,374.424 296.510,374.273 296.660 M26.000 298.786 C 26.000 298.998,26.360 299.365,26.800 299.600 C 27.478 299.963,27.600 299.904,27.600 299.214 C 27.600 298.667,27.338 298.400,26.800 298.400 C 26.360 298.400,26.000 298.574,26.000 298.786 M27.671 301.867 C 27.865 302.870,28.800 303.008,28.800 302.033 C 28.800 301.542,28.542 301.200,28.171 301.200 C 27.798 301.200,27.594 301.472,27.671 301.867 M369.800 304.333 C 369.450 304.683,369.585 305.600,369.986 305.600 C 370.198 305.600,370.548 305.270,370.764 304.867 C 371.136 304.172,370.380 303.754,369.800 304.333 M366.832 309.767 C 366.849 310.225,366.954 310.374,367.066 310.098 C 367.177 309.821,367.403 309.678,367.567 309.780 C 367.732 309.882,367.867 309.733,367.867 309.449 C 367.867 309.165,367.627 308.933,367.333 308.933 C 367.040 308.933,366.814 309.308,366.832 309.767 M364.300 313.103 C 363.915 313.189,363.600 313.605,363.600 314.029 C 363.600 314.770,363.632 314.768,364.433 313.967 C 365.359 313.041,365.333 312.873,364.300 313.103 M36.400 315.200 C 36.400 315.420,36.670 315.600,37.000 315.600 C 37.330 315.600,37.600 315.420,37.600 315.200 C 37.600 314.980,37.330 314.800,37.000 314.800 C 36.670 314.800,36.400 314.980,36.400 315.200 M360.800 318.249 C 360.800 318.780,360.909 318.808,361.400 318.400 C 361.730 318.126,362.000 317.834,362.000 317.751 C 362.000 317.668,361.730 317.600,361.400 317.600 C 361.070 317.600,360.800 317.892,360.800 318.249 M39.600 319.800 C 39.600 320.130,39.870 320.400,40.200 320.400 C 40.530 320.400,40.800 320.130,40.800 319.800 C 40.800 319.470,40.530 319.200,40.200 319.200 C 39.870 319.200,39.600 319.470,39.600 319.800 M359.660 319.842 C 359.362 320.178,359.223 320.556,359.350 320.683 C 359.628 320.961,360.800 320.046,360.800 319.551 C 360.800 319.020,360.265 319.157,359.660 319.842 M40.800 321.243 C 40.800 321.486,41.058 321.586,41.374 321.465 C 41.690 321.344,42.036 321.460,42.143 321.722 C 42.249 321.985,42.351 321.885,42.368 321.500 C 42.388 321.056,42.107 320.800,41.600 320.800 C 41.160 320.800,40.800 320.999,40.800 321.243 M45.428 326.755 C 45.156 327.195,46.175 328.092,46.537 327.730 C 46.682 327.585,46.800 327.227,46.800 326.933 C 46.800 326.337,45.769 326.203,45.428 326.755 M294.000 376.249 C 294.000 376.780,294.109 376.808,294.600 376.400 C 294.930 376.126,295.200 375.834,295.200 375.751 C 295.200 375.668,294.930 375.600,294.600 375.600 C 294.270 375.600,294.000 375.892,294.000 376.249 M108.100 377.065 C 107.431 377.335,107.467 377.863,108.173 378.134 C 108.559 378.282,108.728 378.100,108.688 377.577 C 108.656 377.150,108.623 376.814,108.615 376.832 C 108.607 376.849,108.375 376.954,108.100 377.065 M288.046 379.300 C 288.079 379.938,288.145 380.003,288.271 379.525 C 288.369 379.153,288.753 378.769,289.125 378.671 C 289.603 378.545,289.538 378.479,288.900 378.446 C 288.207 378.411,288.011 378.607,288.046 379.300 M113.700 380.500 C 113.792 380.775,114.107 381.000,114.400 381.000 C 114.693 381.000,115.008 380.775,115.100 380.500 C 115.199 380.203,114.916 380.000,114.400 380.000 C 113.884 380.000,113.601 380.203,113.700 380.500 M278.792 383.410 C 278.514 383.745,278.386 384.120,278.509 384.242 C 278.815 384.548,280.400 383.663,280.400 383.186 C 280.400 382.586,279.355 382.732,278.792 383.410 M124.396 384.996 C 124.668 385.323,125.053 385.491,125.252 385.368 C 125.762 385.052,125.274 384.400,124.527 384.400 C 124.019 384.400,123.994 384.511,124.396 384.996 M127.200 386.357 C 127.200 386.554,127.470 386.818,127.800 386.945 C 128.165 387.085,128.400 386.945,128.400 386.587 C 128.400 386.264,128.130 386.000,127.800 386.000 C 127.470 386.000,127.200 386.161,127.200 386.357 M271.333 386.617 C 271.333 386.985,271.562 387.147,271.899 387.017 C 272.211 386.898,272.541 386.800,272.633 386.800 C 272.725 386.800,272.800 386.620,272.800 386.400 C 272.800 386.180,272.470 386.000,272.067 386.000 C 271.663 386.000,271.333 386.278,271.333 386.617 M267.074 388.037 C 266.864 388.840,266.887 388.845,267.628 388.175 C 268.546 387.343,268.579 387.200,267.847 387.200 C 267.542 387.200,267.195 387.577,267.074 388.037 M135.600 389.176 C 135.600 389.383,135.808 389.681,136.062 389.838 C 136.348 390.015,136.415 389.948,136.238 389.662 C 136.081 389.408,136.143 389.200,136.376 389.200 C 136.609 389.200,136.800 389.470,136.800 389.800 C 136.800 390.130,136.963 390.400,137.163 390.400 C 137.362 390.400,137.431 390.040,137.316 389.600 C 137.110 388.813,135.600 388.440,135.600 389.176 M263.379 389.166 C 263.503 389.367,263.379 389.612,263.102 389.711 C 262.826 389.810,262.731 390.031,262.890 390.202 C 263.209 390.544,264.400 389.714,264.400 389.151 C 264.400 388.958,264.119 388.800,263.776 388.800 C 263.433 388.800,263.255 388.965,263.379 389.166 M146.143 392.600 C 146.473 392.930,146.846 393.200,146.971 393.200 C 147.097 393.200,147.200 392.930,147.200 392.600 C 147.200 392.260,146.841 392.000,146.371 392.000 C 145.635 392.000,145.610 392.067,146.143 392.600 M253.467 392.267 C 252.559 393.175,253.506 393.458,254.624 392.613 C 255.386 392.036,255.385 392.025,254.567 392.013 C 254.108 392.006,253.613 392.120,253.467 392.267 M152.275 393.851 C 152.607 394.717,153.600 394.838,153.600 394.012 C 153.600 393.511,153.341 393.269,152.844 393.307 C 152.428 393.338,152.172 393.583,152.275 393.851 M246.667 393.467 C 246.140 393.993,246.414 394.727,247.100 394.627 C 247.939 394.504,248.301 393.200,247.496 393.200 C 247.187 393.200,246.813 393.320,246.667 393.467 M157.944 395.613 C 158.464 396.046,159.364 396.386,159.944 396.368 C 160.525 396.351,160.775 396.246,160.500 396.135 C 160.225 396.024,160.000 395.678,160.000 395.367 C 160.000 394.976,159.534 394.804,158.500 394.813 L 157.000 394.827 157.944 395.613 M240.585 395.175 C 240.712 395.382,240.498 395.752,240.108 395.998 C 239.547 396.353,239.731 396.392,240.997 396.187 C 243.649 395.756,244.186 394.800,241.776 394.800 C 240.991 394.800,240.457 394.968,240.585 395.175 M167.257 396.756 C 166.879 396.996,166.849 397.183,167.157 397.374 C 167.401 397.524,167.600 397.435,167.600 397.175 C 167.600 396.840,167.805 396.863,168.300 397.251 C 168.934 397.749,168.949 397.734,168.451 397.100 C 168.149 396.715,167.879 396.403,167.851 396.406 C 167.823 396.409,167.556 396.567,167.257 396.756 M175.376 398.373 C 175.997 399.060,176.581 399.148,178.487 398.846 C 179.712 398.651,178.031 397.600,176.495 397.600 C 174.722 397.600,174.694 397.620,175.376 398.373 M222.000 398.400 C 222.000 399.304,223.480 399.506,224.826 398.786 C 226.122 398.092,225.696 397.600,223.800 397.600 C 222.267 397.600,222.000 397.719,222.000 398.400 " stroke="none" fill="#fafafa" fill-rule="evenodd"></path><path id="path2" d="M67.600 50.420 C 67.600 50.798,67.222 51.206,66.760 51.326 C 66.296 51.448,66.038 51.738,66.184 51.974 C 66.331 52.212,65.993 52.574,65.424 52.791 C 64.861 53.005,64.400 53.353,64.400 53.563 C 64.400 53.774,64.027 54.064,63.571 54.209 C 63.073 54.367,62.828 54.697,62.959 55.036 C 63.100 55.404,62.901 55.600,62.387 55.600 C 61.867 55.600,61.600 55.871,61.600 56.400 C 61.600 56.933,61.333 57.200,60.800 57.200 C 60.360 57.200,60.000 57.427,60.000 57.704 C 60.000 57.981,59.633 58.437,59.184 58.717 C 58.736 58.997,58.477 59.400,58.608 59.613 C 58.740 59.826,58.477 60.000,58.024 60.000 C 57.467 60.000,57.200 60.259,57.200 60.800 C 57.200 61.333,56.933 61.600,56.400 61.600 C 55.871 61.600,55.600 61.867,55.600 62.387 C 55.600 62.901,55.404 63.100,55.036 62.959 C 54.702 62.830,54.370 63.064,54.221 63.534 C 54.083 63.970,53.706 64.427,53.385 64.550 C 53.063 64.674,52.800 65.121,52.800 65.543 C 52.800 66.029,52.543 66.291,52.100 66.256 C 51.640 66.219,51.440 66.440,51.518 66.900 C 51.582 67.285,51.428 67.600,51.175 67.600 C 50.922 67.600,50.814 67.861,50.937 68.180 C 51.080 68.553,50.967 68.685,50.620 68.552 C 50.324 68.439,49.960 68.541,49.813 68.779 C 49.665 69.018,49.377 69.109,49.172 68.983 C 48.829 68.771,48.625 69.341,48.763 70.130 C 48.794 70.311,48.635 70.345,48.410 70.206 C 48.184 70.067,48.000 70.154,48.000 70.400 C 48.000 70.646,47.829 70.742,47.621 70.613 C 47.412 70.484,47.309 70.729,47.392 71.158 C 47.474 71.586,47.288 72.034,46.978 72.153 C 46.656 72.277,46.518 72.641,46.656 73.001 C 46.789 73.349,46.741 73.604,46.549 73.569 C 45.793 73.431,45.200 73.619,45.200 73.997 C 45.200 74.215,44.623 74.945,43.917 75.619 C 43.212 76.293,42.570 77.326,42.491 77.915 C 42.298 79.356,42.095 79.482,41.425 78.571 C 41.009 78.004,40.868 77.959,40.893 78.400 C 40.983 80.026,40.736 80.723,40.000 80.916 C 39.526 81.040,39.200 81.462,39.200 81.950 C 39.200 82.569,39.025 82.709,38.500 82.513 C 37.865 82.275,37.856 82.320,38.400 83.002 C 38.749 83.439,38.791 83.628,38.500 83.453 C 38.219 83.284,38.000 83.349,38.000 83.600 C 38.000 83.846,37.802 83.925,37.560 83.775 C 37.251 83.584,37.255 83.756,37.574 84.352 C 37.968 85.087,37.920 85.200,37.214 85.200 C 36.667 85.200,36.400 85.462,36.400 86.000 C 36.400 86.440,36.135 86.800,35.810 86.800 C 35.486 86.800,34.941 87.340,34.600 88.000 C 34.259 88.660,33.810 89.200,33.602 89.200 C 33.395 89.200,33.324 89.459,33.446 89.775 C 33.567 90.092,33.292 90.672,32.833 91.064 C 32.354 91.474,32.000 92.258,32.000 92.906 C 32.000 93.733,31.825 94.004,31.345 93.918 C 30.948 93.846,30.642 94.112,30.567 94.593 C 30.499 95.029,30.233 95.456,29.977 95.541 C 29.647 95.651,29.670 95.798,30.055 96.042 C 30.486 96.315,30.458 96.389,29.924 96.394 C 29.552 96.397,29.119 96.608,28.962 96.862 C 28.779 97.158,28.853 97.215,29.168 97.020 C 29.822 96.616,28.823 98.406,28.050 99.023 C 27.747 99.265,27.500 99.943,27.500 100.531 C 27.500 101.310,27.296 101.600,26.750 101.600 C 26.267 101.600,26.000 101.884,26.000 102.400 C 26.000 102.961,25.731 103.202,25.100 103.206 C 24.397 103.211,24.327 103.293,24.781 103.580 C 25.100 103.782,25.550 103.861,25.781 103.755 C 26.011 103.649,25.795 103.863,25.300 104.230 C 24.805 104.597,24.400 105.139,24.400 105.435 C 24.400 105.730,24.035 106.167,23.588 106.406 C 23.024 106.708,22.810 107.170,22.888 107.920 C 22.968 108.690,22.822 108.988,22.380 108.958 C 21.764 108.916,21.712 109.130,21.580 112.200 C 21.520 113.606,21.094 113.999,20.562 113.138 C 20.386 112.854,20.452 112.785,20.734 112.959 C 21.029 113.142,21.107 113.023,20.954 112.623 C 20.823 112.283,20.543 112.112,20.331 112.243 C 20.119 112.374,20.023 112.688,20.117 112.940 C 20.384 113.653,19.779 115.000,19.193 115.000 C 18.904 115.000,18.583 115.250,18.481 115.556 C 18.372 115.884,18.475 116.001,18.734 115.841 C 19.009 115.671,18.973 116.060,18.638 116.885 C 18.344 117.608,18.186 118.425,18.285 118.700 C 18.385 118.975,18.182 119.309,17.833 119.443 C 17.409 119.605,17.200 120.188,17.200 121.205 C 17.200 122.573,17.110 122.705,16.300 122.528 C 15.577 122.369,15.518 122.415,16.000 122.759 C 16.407 123.050,16.440 123.190,16.100 123.194 C 15.825 123.197,15.600 123.560,15.600 124.000 C 15.600 124.440,15.240 125.160,14.800 125.600 C 14.232 126.168,14.000 126.933,14.000 128.243 C 14.000 129.716,13.880 130.039,13.400 129.855 C 12.805 129.627,12.579 130.964,12.784 133.500 C 12.831 134.075,12.635 134.400,12.241 134.400 C 11.878 134.400,11.713 134.171,11.840 133.840 C 11.958 133.533,11.905 133.189,11.723 133.076 C 11.541 132.963,11.337 133.890,11.270 135.136 C 11.203 136.381,10.954 137.580,10.716 137.800 C 10.424 138.070,10.361 138.059,10.524 137.767 C 10.656 137.528,10.528 137.333,10.238 137.333 C 9.948 137.333,9.714 137.528,9.719 137.767 C 9.799 142.422,9.574 144.014,8.888 143.647 C 8.246 143.303,8.177 143.478,8.188 145.438 C 8.198 147.161,8.056 147.655,7.500 147.831 C 6.869 148.032,6.438 152.022,6.762 154.666 C 6.794 154.922,6.500 155.084,6.110 155.026 C 5.497 154.935,5.373 155.337,5.200 157.960 C 5.059 160.097,4.852 160.970,4.500 160.900 C 4.225 160.845,3.986 161.025,3.969 161.300 C 3.953 161.575,3.867 162.160,3.780 162.600 C 3.692 163.040,3.599 164.979,3.572 166.909 C 3.539 169.337,3.351 170.592,2.962 170.981 C 2.542 171.401,2.400 172.753,2.400 176.348 C 2.400 179.120,2.231 181.257,2.000 181.400 C 1.780 181.536,1.587 181.322,1.572 180.924 C 1.547 180.278,1.507 180.286,1.200 181.000 C 0.751 182.045,0.751 217.955,1.200 219.000 C 1.432 219.539,1.555 219.604,1.578 219.200 C 1.608 218.667,1.655 218.667,2.000 219.200 C 2.213 219.530,2.391 221.825,2.394 224.300 C 2.399 227.939,2.510 228.800,2.974 228.800 C 3.427 228.800,3.550 229.529,3.560 232.274 C 3.577 236.621,3.948 239.197,4.543 239.086 C 4.840 239.030,5.035 239.913,5.098 241.600 C 5.248 245.553,5.550 246.905,6.224 246.646 C 6.691 246.467,6.800 246.946,6.800 249.166 C 6.800 251.440,6.919 251.938,7.500 252.090 C 8.064 252.238,8.198 252.711,8.188 254.537 C 8.178 256.444,8.289 256.800,8.888 256.800 C 9.559 256.800,9.786 258.288,9.719 262.233 C 9.714 262.472,9.948 262.667,10.238 262.667 C 10.528 262.667,10.655 262.489,10.521 262.272 C 10.384 262.051,10.480 262.002,10.738 262.162 C 10.992 262.319,11.200 263.230,11.200 264.186 C 11.200 265.745,11.285 265.903,12.023 265.710 C 12.698 265.533,12.831 265.666,12.761 266.447 C 12.541 268.898,12.796 270.376,13.400 270.145 C 13.880 269.961,14.000 270.284,14.000 271.757 C 14.000 273.067,14.232 273.832,14.800 274.400 C 15.240 274.840,15.603 275.695,15.606 276.300 C 15.609 276.905,15.806 277.670,16.044 278.000 C 16.412 278.511,16.443 278.500,16.258 277.920 C 16.115 277.474,16.218 277.309,16.556 277.439 C 16.840 277.547,17.095 278.248,17.123 278.995 C 17.151 279.743,17.539 281.035,17.985 281.868 C 18.431 282.700,18.700 283.685,18.582 284.057 C 18.464 284.429,18.553 284.847,18.779 284.987 C 19.018 285.135,19.097 284.998,18.968 284.661 C 18.846 284.342,18.938 283.962,19.173 283.817 C 19.415 283.667,19.601 283.865,19.602 284.276 C 19.604 284.674,19.866 285.501,20.186 286.113 C 20.505 286.725,20.570 287.105,20.331 286.957 C 20.076 286.799,19.973 286.918,20.081 287.244 C 20.183 287.550,20.519 287.800,20.828 287.800 C 21.137 287.800,21.444 288.160,21.510 288.600 C 21.812 290.596,22.049 291.188,22.507 291.098 C 22.807 291.038,23.000 291.455,23.000 292.163 C 23.000 292.803,23.250 293.412,23.556 293.515 C 23.936 293.644,24.011 293.530,23.792 293.152 C 23.616 292.848,23.626 292.740,23.814 292.912 C 24.177 293.242,24.342 293.911,24.502 295.699 C 24.568 296.442,24.827 296.799,25.300 296.799 C 25.733 296.800,26.000 297.105,26.000 297.600 C 26.000 298.133,26.267 298.400,26.800 298.400 C 27.424 298.400,27.600 298.667,27.600 299.613 C 27.600 300.321,27.849 300.921,28.200 301.055 C 28.530 301.182,28.800 301.716,28.800 302.243 C 28.800 302.769,29.144 303.544,29.564 303.964 C 29.984 304.384,30.395 305.059,30.478 305.464 C 30.567 305.899,30.910 306.152,31.315 306.082 C 31.828 305.994,32.000 306.249,32.000 307.094 C 32.000 307.742,32.354 308.526,32.833 308.936 C 33.323 309.355,33.568 309.907,33.427 310.273 C 33.249 310.739,33.385 310.845,33.964 310.693 C 34.492 310.556,34.676 310.658,34.539 311.014 C 34.259 311.745,35.108 313.200,35.814 313.200 C 36.136 313.200,36.400 313.560,36.400 314.000 C 36.400 314.538,36.667 314.800,37.214 314.800 C 37.920 314.800,37.968 314.913,37.574 315.648 C 37.255 316.244,37.251 316.416,37.560 316.225 C 37.810 316.071,38.000 316.228,38.000 316.589 C 38.000 316.939,38.270 317.329,38.600 317.455 C 38.930 317.582,39.200 317.924,39.200 318.216 C 39.200 318.507,39.560 318.860,40.000 319.000 C 40.440 319.140,40.800 319.602,40.800 320.027 C 40.800 320.533,41.076 320.800,41.600 320.800 C 42.207 320.800,42.400 321.067,42.400 321.903 C 42.400 322.652,42.849 323.418,43.800 324.290 C 44.570 324.997,45.200 325.761,45.200 325.988 C 45.200 326.214,45.560 326.400,46.000 326.400 C 46.533 326.400,46.800 326.667,46.800 327.200 C 46.800 327.736,47.067 328.000,47.608 328.000 C 48.260 328.000,48.369 328.184,48.175 328.956 C 48.043 329.482,48.133 330.035,48.374 330.184 C 48.616 330.333,48.709 330.623,48.583 330.828 C 48.456 331.032,48.542 331.200,48.773 331.200 C 49.004 331.200,49.418 330.840,49.693 330.400 C 49.968 329.960,50.425 329.600,50.709 329.600 C 50.993 329.600,51.336 329.285,51.472 328.900 C 51.607 328.515,52.051 327.445,52.459 326.522 C 52.867 325.599,53.199 324.699,53.197 324.522 C 53.193 324.121,56.036 316.153,57.808 311.600 C 62.041 300.724,64.743 294.015,65.781 291.800 C 66.091 291.140,67.172 288.662,68.184 286.294 C 69.196 283.926,70.919 280.092,72.012 277.774 C 73.106 275.456,74.000 273.486,74.000 273.397 C 74.000 272.076,89.004 243.291,96.203 230.800 C 101.915 220.889,105.606 214.690,108.000 210.986 C 108.330 210.475,109.399 208.739,110.375 207.129 C 119.259 192.471,140.020 163.957,151.969 150.000 C 156.891 144.252,166.046 134.082,167.993 132.200 C 171.690 128.627,171.695 128.528,168.306 124.924 C 158.523 114.518,146.184 102.927,135.600 94.200 C 133.732 92.660,131.700 90.957,131.083 90.416 C 126.346 86.263,112.591 76.377,101.069 68.845 C 95.879 65.452,83.431 58.320,76.121 54.551 C 72.338 52.600,69.167 50.718,69.076 50.369 C 68.852 49.512,67.600 49.556,67.600 50.420 M207.392 174.737 C 206.950 175.102,204.874 177.380,202.778 179.800 C 192.512 191.655,184.336 202.486,175.300 216.200 C 173.416 219.060,171.217 222.396,170.413 223.614 C 169.609 224.832,168.822 226.092,168.664 226.414 C 168.507 226.736,167.311 228.710,166.008 230.800 C 157.579 244.317,144.838 268.312,138.715 282.200 C 137.843 284.180,136.713 286.700,136.205 287.800 C 135.697 288.900,134.444 291.780,133.420 294.200 C 132.396 296.620,131.394 298.960,131.193 299.400 C 130.313 301.333,127.600 308.232,127.600 308.540 C 127.600 308.726,127.339 309.446,127.020 310.140 C 126.172 311.981,123.753 318.455,122.364 322.600 C 121.701 324.580,120.645 327.640,120.018 329.400 C 119.392 331.160,118.387 334.220,117.785 336.200 C 117.184 338.180,116.347 340.854,115.927 342.142 C 114.889 345.325,111.739 356.893,110.574 361.800 C 108.978 368.528,108.429 370.910,107.962 373.149 C 107.640 374.689,107.299 375.354,106.756 375.496 C 105.128 375.921,106.416 377.257,108.125 376.915 C 109.116 376.717,109.291 376.787,109.092 377.303 C 108.815 378.026,109.531 378.400,111.188 378.400 C 112.012 378.400,112.296 378.586,112.256 379.100 C 112.213 379.633,112.559 379.830,113.700 379.924 C 114.792 380.015,115.200 380.232,115.201 380.724 C 115.201 381.171,115.575 381.433,116.301 381.498 C 118.089 381.658,118.758 381.823,119.088 382.186 C 119.260 382.374,119.130 382.383,118.800 382.205 C 118.349 381.963,118.309 382.001,118.639 382.360 C 118.880 382.623,119.825 382.867,120.739 382.904 C 121.652 382.940,122.400 383.122,122.400 383.309 C 122.400 383.495,122.197 383.522,121.948 383.368 C 121.674 383.199,121.568 383.307,121.679 383.644 C 121.793 383.990,122.585 384.247,123.772 384.324 C 125.425 384.431,125.654 384.549,125.482 385.210 C 125.372 385.629,125.399 385.957,125.541 385.939 C 126.845 385.769,129.303 386.074,128.866 386.350 C 128.433 386.625,128.447 386.733,128.941 386.922 C 129.275 387.050,129.636 386.940,129.743 386.678 C 129.887 386.323,129.945 386.328,129.968 386.700 C 129.986 386.982,130.523 387.200,131.197 387.200 C 131.960 387.200,132.574 387.490,132.893 388.000 C 133.428 388.858,134.237 389.136,133.765 388.300 C 133.539 387.900,133.590 387.900,134.021 388.300 C 134.318 388.575,135.356 388.800,136.329 388.800 C 137.940 388.800,138.049 388.860,137.549 389.477 C 137.236 389.862,137.203 390.032,137.472 389.870 C 137.732 389.714,138.058 389.770,138.196 389.993 C 138.334 390.217,139.112 390.403,139.924 390.406 C 141.444 390.412,142.498 390.839,142.430 391.421 C 142.408 391.603,143.424 391.813,144.685 391.886 C 146.179 391.974,147.095 392.226,147.310 392.610 C 147.543 393.026,148.337 393.200,150.007 393.200 C 152.087 393.200,152.346 393.285,152.134 393.900 C 151.927 394.500,151.977 394.492,152.486 393.839 C 153.134 393.006,154.098 393.279,153.746 394.196 C 153.569 394.657,154.170 394.789,156.864 394.883 C 159.118 394.962,160.172 395.150,160.113 395.462 C 160.028 395.910,162.451 396.310,166.276 396.479 C 167.198 396.520,167.870 396.687,167.770 396.849 C 167.669 397.012,167.774 397.261,168.003 397.402 C 168.232 397.544,168.370 397.429,168.310 397.148 C 168.167 396.484,169.281 396.431,169.800 397.077 C 170.076 397.420,171.751 397.593,175.183 397.632 C 179.317 397.680,180.047 397.776,179.471 398.198 C 178.198 399.128,179.677 399.200,200.200 399.200 C 220.754 399.200,221.710 399.153,221.332 398.167 C 221.152 397.698,221.915 397.600,225.757 397.600 C 229.384 397.600,230.400 397.482,230.400 397.061 C 230.400 396.735,230.878 396.508,231.607 396.487 C 232.271 396.469,232.718 396.609,232.601 396.799 C 232.483 396.989,232.574 397.261,232.803 397.402 C 233.032 397.544,233.170 397.421,233.110 397.130 C 233.041 396.799,233.451 396.562,234.200 396.500 C 239.680 396.042,240.400 395.911,240.400 395.368 C 240.400 394.886,244.164 394.472,246.075 394.744 C 246.227 394.766,246.282 394.427,246.198 393.992 C 246.056 393.253,246.273 393.200,249.466 393.200 C 252.037 393.200,252.838 393.076,252.694 392.700 C 252.570 392.375,252.941 392.170,253.751 392.113 C 255.838 391.968,256.800 391.614,256.800 390.992 C 256.800 390.667,257.115 390.403,257.500 390.406 C 258.094 390.411,258.110 390.469,257.603 390.789 C 257.226 391.028,257.153 391.286,257.403 391.490 C 257.622 391.668,257.764 391.744,257.719 391.659 C 257.462 391.169,258.948 390.400,260.153 390.400 C 261.951 390.400,263.835 389.596,263.111 389.137 C 262.813 388.947,263.494 388.810,264.749 388.806 C 266.717 388.801,266.852 388.743,266.349 388.123 C 265.976 387.663,265.960 387.543,266.300 387.747 C 266.575 387.912,266.800 387.874,266.800 387.662 C 266.800 387.450,267.701 387.270,268.801 387.261 C 270.935 387.245,271.751 386.968,271.390 386.384 C 271.267 386.185,271.759 386.017,272.484 386.009 C 274.880 385.982,275.134 385.894,274.989 385.142 C 274.912 384.743,274.973 384.434,275.125 384.456 C 276.927 384.712,278.400 384.327,278.400 383.600 C 278.400 382.888,280.472 382.402,281.383 382.900 C 281.483 382.955,281.799 382.681,282.083 382.292 C 282.368 381.902,283.195 381.542,283.920 381.492 C 284.957 381.420,285.200 381.250,285.057 380.700 C 284.907 380.122,285.147 380.000,286.437 380.000 C 287.733 380.000,288.000 379.863,288.000 379.200 C 288.000 378.535,288.267 378.400,289.576 378.400 C 290.443 378.400,291.264 378.220,291.400 378.000 C 291.536 377.780,291.446 377.600,291.200 377.600 C 290.954 377.600,290.876 377.401,291.026 377.157 C 291.222 376.841,291.386 376.853,291.600 377.200 C 291.805 377.531,291.984 377.550,292.163 377.260 C 292.307 377.026,292.701 376.940,293.037 377.069 C 293.439 377.224,293.724 377.012,293.871 376.452 C 293.993 375.983,294.332 375.600,294.623 375.600 C 295.612 375.600,295.610 374.869,294.607 370.932 C 294.057 368.769,293.325 365.740,292.982 364.200 C 291.461 357.382,288.799 347.020,286.609 339.400 C 286.293 338.300,285.655 336.050,285.192 334.400 C 284.729 332.750,284.111 330.680,283.818 329.800 C 283.525 328.920,282.799 326.580,282.205 324.600 C 280.076 317.504,274.375 300.837,271.397 293.000 C 270.097 289.580,265.206 277.228,264.586 275.800 C 264.300 275.140,263.224 272.620,262.197 270.200 C 261.169 267.780,259.828 264.720,259.217 263.400 C 258.606 262.080,257.527 259.650,256.819 258.000 C 255.372 254.629,244.435 232.514,242.080 228.200 C 241.240 226.660,239.768 223.960,238.810 222.200 C 236.105 217.231,229.906 206.544,227.675 203.000 C 226.566 201.240,224.899 198.540,223.970 197.000 C 220.172 190.709,209.338 174.780,208.507 174.266 C 208.336 174.160,207.834 174.372,207.392 174.737 " stroke="none" fill="#94241c" fill-rule="evenodd"></path></g></svg>