<svg id="svg" version="1.1" xmlns="http://www.w3.org/2000/svg" xmlns:xlink="http://www.w3.org/1999/xlink" width="400" height="400" viewBox="0, 0, 400,400"><g id="svgg"><path id="path0" d="M95.629 93.054 C 94.812 94.092,94.626 94.612,94.787 95.400 C 95.387 98.334,97.390 106.649,98.785 112.000 C 100.498 118.573,101.313 121.925,101.846 124.600 C 102.153 126.140,102.584 127.850,102.803 128.400 C 103.022 128.950,103.552 130.930,103.979 132.800 C 105.258 138.392,107.202 146.322,108.785 152.400 C 110.180 157.755,111.263 162.133,112.002 165.400 C 112.399 167.160,113.020 169.770,113.380 171.200 C 115.327 178.925,116.125 182.090,116.809 184.800 C 118.638 192.040,119.315 194.806,120.020 197.915 C 120.434 199.739,120.870 201.390,120.990 201.583 C 121.110 201.777,121.555 203.525,121.979 205.468 C 122.847 209.442,123.401 211.705,126.809 225.200 C 127.226 226.850,127.952 229.730,128.423 231.600 C 128.894 233.470,129.592 236.453,129.973 238.230 C 130.354 240.006,130.788 241.657,130.937 241.898 C 131.086 242.139,131.552 243.925,131.972 245.868 C 132.967 250.463,133.922 254.371,134.838 257.600 C 135.243 259.030,135.849 261.460,136.184 263.000 C 136.810 265.879,137.423 268.376,138.785 273.600 C 140.100 278.644,141.244 283.244,142.018 286.600 C 143.357 292.399,144.090 295.366,144.838 298.000 C 145.243 299.430,145.849 301.860,146.184 303.400 C 146.810 306.279,147.423 308.776,148.785 314.000 C 150.095 319.027,151.242 323.638,152.019 327.000 C 152.426 328.760,153.038 331.184,153.379 332.387 C 153.721 333.590,154.000 334.889,154.000 335.273 C 154.000 335.658,154.288 336.833,154.640 337.886 C 157.247 345.686,156.339 346.212,180.000 323.200 C 181.696 321.550,186.753 316.690,191.238 312.400 C 195.723 308.110,201.734 302.344,204.596 299.587 C 207.458 296.829,211.491 292.959,213.557 290.987 C 218.020 286.726,218.453 286.311,230.201 275.000 C 235.228 270.160,239.634 265.930,239.992 265.600 C 240.843 264.816,248.830 257.152,255.400 250.815 C 260.687 245.716,277.202 229.841,281.008 226.200 C 282.158 225.100,287.127 220.331,292.049 215.602 C 296.972 210.873,303.160 204.931,305.800 202.396 C 324.545 184.402,329.163 179.965,330.989 178.200 C 332.126 177.100,335.114 174.227,337.628 171.815 C 346.270 163.527,346.128 162.818,335.200 159.734 C 333.330 159.206,330.270 158.347,328.400 157.824 C 326.530 157.302,323.470 156.426,321.600 155.877 C 319.730 155.328,317.120 154.589,315.800 154.234 C 314.480 153.879,312.230 153.236,310.800 152.806 C 307.781 151.897,302.988 150.515,297.600 149.000 C 293.711 147.906,290.007 146.829,284.000 145.045 C 282.130 144.490,278.890 143.560,276.800 142.978 C 274.710 142.397,271.560 141.504,269.800 140.995 C 268.040 140.485,264.890 139.585,262.800 138.995 C 257.320 137.447,252.662 136.089,249.000 134.972 C 247.240 134.435,245.576 133.997,245.302 133.998 C 245.027 133.999,243.767 133.642,242.502 133.205 C 240.380 132.473,238.857 132.034,232.200 130.237 C 229.683 129.557,225.974 128.458,222.600 127.392 C 221.500 127.045,218.980 126.324,217.000 125.791 C 213.223 124.773,208.373 123.397,203.000 121.819 C 201.240 121.302,198.720 120.589,197.400 120.234 C 196.080 119.879,193.830 119.236,192.400 118.806 C 189.517 117.938,184.959 116.622,179.200 114.995 C 171.640 112.859,163.615 110.512,159.800 109.322 C 158.700 108.978,156.223 108.279,154.295 107.768 C 150.246 106.695,145.329 105.320,140.200 103.826 C 138.220 103.250,135.070 102.350,133.200 101.826 C 131.330 101.303,128.180 100.403,126.200 99.826 C 124.220 99.250,121.070 98.350,119.200 97.826 C 117.330 97.303,114.180 96.400,112.200 95.819 C 110.220 95.239,107.340 94.433,105.800 94.029 C 104.260 93.625,102.212 93.003,101.250 92.647 C 98.553 91.650,96.623 91.790,95.629 93.054 M105.280 100.031 C 106.446 100.268,108.120 100.720,109.000 101.035 C 109.880 101.350,111.950 101.972,113.600 102.416 C 117.271 103.406,122.215 104.794,127.000 106.180 C 128.980 106.753,132.130 107.650,134.000 108.174 C 135.870 108.697,139.020 109.601,141.000 110.182 C 142.980 110.763,146.069 111.602,147.863 112.046 C 152.932 113.300,152.877 113.817,147.089 119.394 C 114.320 150.964,115.087 150.255,114.523 149.497 C 114.036 148.843,111.603 139.778,110.149 133.200 C 109.833 131.770,109.313 129.700,108.994 128.600 C 108.291 126.175,106.980 120.937,105.993 116.600 C 104.826 111.478,103.967 108.036,102.961 104.454 C 102.272 102.002,102.129 100.907,102.425 100.354 C 102.900 99.465,102.641 99.494,105.280 100.031 M169.186 118.288 C 174.356 119.702,179.029 121.017,182.800 122.118 C 187.344 123.444,193.087 125.098,197.000 126.205 C 198.760 126.704,201.820 127.590,203.800 128.176 C 205.780 128.762,208.330 129.482,209.468 129.777 C 213.453 130.810,213.267 131.273,206.097 138.139 C 203.076 141.033,198.263 145.656,195.402 148.413 C 180.942 162.350,177.056 166.000,176.680 166.000 C 175.539 166.000,174.822 165.024,174.403 162.901 C 174.154 161.636,173.665 159.610,173.318 158.400 C 172.970 157.190,172.364 154.760,171.970 153.000 C 171.118 149.191,170.726 147.597,167.191 133.600 C 163.413 118.639,163.457 118.877,164.211 117.727 C 164.577 117.169,165.029 116.894,165.303 117.064 C 165.561 117.223,167.308 117.774,169.186 118.288 M158.515 123.000 C 159.074 124.980,159.737 127.740,159.989 129.133 C 160.241 130.526,160.619 132.056,160.830 132.533 C 161.040 133.010,161.560 134.930,161.984 136.800 C 162.409 138.670,163.196 142.000,163.732 144.200 C 164.269 146.400,165.016 149.460,165.392 151.000 C 165.767 152.540,166.406 154.970,166.810 156.400 C 167.214 157.830,167.740 160.080,167.978 161.400 C 168.217 162.720,168.659 164.512,168.962 165.381 C 169.917 168.123,168.675 168.685,164.564 167.373 C 163.484 167.029,161.070 166.326,159.200 165.811 C 157.330 165.296,154.270 164.428,152.400 163.882 C 141.878 160.810,135.051 158.879,131.800 158.054 C 130.260 157.663,128.640 157.154,128.200 156.924 C 127.760 156.693,126.017 156.201,124.326 155.831 C 118.910 154.644,118.876 154.715,129.979 144.046 C 135.158 139.071,141.455 133.020,143.973 130.600 C 146.491 128.180,149.733 125.045,151.176 123.633 C 156.964 117.970,157.093 117.958,158.515 123.000 M228.372 135.184 C 229.817 135.615,232.530 136.408,234.400 136.946 C 236.270 137.484,239.330 138.393,241.200 138.964 C 243.070 139.536,244.824 140.003,245.098 140.002 C 245.373 140.001,246.633 140.358,247.898 140.795 C 250.020 141.527,251.543 141.966,258.200 143.763 C 259.520 144.120,261.770 144.763,263.200 145.193 C 264.630 145.622,267.094 146.359,268.677 146.829 C 274.424 148.539,275.377 147.137,255.637 166.012 C 250.928 170.516,244.809 176.388,242.040 179.062 C 235.729 185.156,235.754 185.161,234.012 177.400 C 233.172 173.657,232.540 171.080,231.215 166.000 C 229.829 160.683,228.739 156.276,227.998 153.000 C 227.092 148.989,226.244 145.608,224.985 140.980 C 223.147 134.225,223.445 133.715,228.372 135.184 M218.540 139.700 C 219.083 141.515,219.646 143.630,219.790 144.400 C 219.934 145.170,220.395 147.060,220.813 148.600 C 221.867 152.479,223.144 157.604,224.002 161.400 C 224.399 163.160,225.020 165.770,225.380 167.200 C 225.740 168.630,226.488 171.600,227.041 173.800 C 227.594 176.000,228.396 179.101,228.823 180.692 C 230.376 186.470,230.911 186.340,219.400 182.998 C 217.640 182.487,214.490 181.586,212.400 180.997 C 210.310 180.408,207.508 179.583,206.174 179.163 C 204.839 178.744,202.409 178.037,200.774 177.593 C 199.138 177.148,196.270 176.352,194.400 175.823 C 192.530 175.295,189.674 174.500,188.052 174.058 C 184.187 173.004,180.800 171.614,180.800 171.083 C 180.800 170.587,187.048 164.485,211.114 141.479 C 217.446 135.426,217.272 135.467,218.540 139.700 M290.275 152.968 C 291.994 153.500,295.110 154.416,297.200 155.002 C 301.175 156.118,305.085 157.262,310.800 158.981 C 312.670 159.543,314.380 160.000,314.600 159.995 C 314.820 159.990,316.440 160.433,318.200 160.978 C 321.647 162.046,326.845 163.570,330.430 164.564 C 331.656 164.903,333.003 165.562,333.424 166.027 L 334.189 166.872 327.547 173.336 C 321.599 179.125,310.512 189.781,301.869 198.017 C 298.274 201.443,297.014 202.265,296.531 201.500 C 296.163 200.918,295.089 197.007,294.197 193.000 C 293.854 191.460,293.312 189.300,292.994 188.200 C 292.275 185.720,290.954 180.429,289.998 176.200 C 289.278 173.012,288.661 170.497,287.202 164.800 C 286.020 160.185,284.741 155.097,284.514 154.107 C 283.972 151.743,285.405 151.459,290.275 152.968 M278.312 154.979 C 278.735 155.517,279.307 157.092,279.582 158.479 C 279.858 159.865,280.527 162.710,281.070 164.800 C 281.613 166.890,282.397 169.950,282.812 171.600 C 283.227 173.250,283.952 176.130,284.423 178.000 C 284.893 179.870,285.606 182.840,286.007 184.600 C 287.209 189.877,288.054 193.255,288.859 196.000 C 290.319 200.977,290.167 203.687,288.469 202.985 C 288.101 202.833,286.810 202.457,285.600 202.149 C 284.390 201.840,282.230 201.236,280.800 200.806 C 277.917 199.938,273.359 198.622,267.600 196.995 C 265.510 196.404,262.360 195.504,260.600 194.995 C 258.840 194.485,255.690 193.586,253.600 192.996 C 249.146 191.739,241.931 189.543,241.501 189.314 C 240.866 188.974,242.485 186.808,245.646 183.770 C 247.460 182.026,251.288 178.350,254.154 175.600 C 262.595 167.500,269.565 160.800,273.200 157.293 C 276.948 153.676,277.198 153.563,278.312 154.979 M121.800 161.190 C 125.704 162.475,130.964 164.004,131.475 164.002 C 131.737 164.001,133.357 164.436,135.075 164.968 C 136.794 165.500,139.910 166.418,142.000 167.008 C 144.090 167.598,147.240 168.505,149.000 169.025 C 155.453 170.930,159.044 171.940,160.904 172.372 C 163.244 172.915,167.200 174.631,167.200 175.103 C 167.200 175.294,163.019 179.489,157.908 184.425 C 146.105 195.826,139.649 202.037,138.811 202.800 C 138.448 203.130,136.523 204.983,134.532 206.917 C 129.555 211.754,129.086 211.566,127.779 204.200 C 127.622 203.320,127.335 202.290,127.140 201.912 C 126.944 201.533,126.445 199.643,126.029 197.712 C 125.294 194.289,124.779 192.156,123.202 186.000 C 121.967 181.181,120.784 176.423,120.017 173.200 C 119.625 171.550,119.016 169.120,118.664 167.800 C 116.671 160.327,117.010 159.613,121.800 161.190 M184.200 178.978 C 190.670 180.983,194.212 182.004,194.698 182.002 C 194.973 182.001,196.233 182.358,197.498 182.795 C 199.620 183.527,201.143 183.966,207.800 185.763 C 209.120 186.120,211.370 186.764,212.800 187.194 C 218.365 188.870,222.280 189.992,224.110 190.436 C 225.251 190.713,226.324 191.286,226.774 191.858 L 227.528 192.816 223.066 197.108 C 214.418 205.426,206.950 212.619,202.400 217.012 C 195.107 224.053,191.593 227.200,191.025 227.200 C 190.487 227.200,189.914 225.405,188.214 218.400 C 186.211 210.145,185.899 208.908,185.190 206.400 C 184.786 204.970,184.247 202.635,183.994 201.210 C 183.740 199.786,183.364 198.306,183.158 197.922 C 182.953 197.538,182.440 195.643,182.020 193.712 C 180.688 187.590,179.280 181.839,178.822 180.647 C 177.741 177.832,179.120 177.404,184.200 178.978 M172.744 180.943 C 172.947 181.194,173.325 182.480,173.585 183.800 C 173.844 185.120,174.506 187.910,175.057 190.000 C 175.607 192.090,176.397 195.150,176.812 196.800 C 177.227 198.450,177.951 201.330,178.421 203.200 C 178.892 205.070,179.605 208.170,180.007 210.088 C 180.409 212.007,180.848 213.754,180.982 213.971 C 181.116 214.188,181.564 215.859,181.976 217.683 C 182.389 219.507,183.003 221.969,183.341 223.153 C 183.679 224.338,184.074 226.255,184.219 227.413 C 184.650 230.865,185.319 230.951,165.600 225.019 C 163.730 224.457,162.020 224.000,161.800 224.005 C 161.580 224.010,159.960 223.567,158.200 223.022 C 156.440 222.476,153.380 221.562,151.400 220.989 C 149.420 220.416,146.360 219.521,144.600 219.000 C 142.840 218.478,140.770 217.928,140.000 217.776 C 138.361 217.454,134.800 215.733,134.800 215.262 C 134.800 214.936,139.476 210.290,147.977 202.171 C 150.495 199.767,154.815 195.616,157.577 192.947 C 171.772 179.231,171.519 179.431,172.744 180.943 M246.400 197.014 C 248.050 197.521,251.110 198.418,253.200 199.007 C 257.929 200.341,263.002 201.810,266.400 202.830 C 267.830 203.259,270.260 203.953,271.800 204.371 C 273.340 204.790,276.220 205.604,278.200 206.180 C 282.011 207.290,284.080 207.858,286.458 208.447 C 289.189 209.124,288.954 210.450,285.524 213.721 C 277.442 221.427,265.948 232.509,259.836 238.487 C 252.461 245.702,251.128 246.508,250.552 244.100 C 250.408 243.495,249.936 241.650,249.504 240.000 C 249.072 238.350,248.391 235.560,247.991 233.800 C 246.882 228.918,245.975 225.266,245.162 222.400 C 244.757 220.970,244.151 218.540,243.816 217.000 C 243.190 214.121,242.577 211.624,241.215 206.400 C 238.060 194.298,237.988 194.430,246.400 197.014 M233.148 198.238 C 233.230 198.307,233.618 199.856,234.011 201.681 C 234.707 204.918,235.225 207.059,236.798 213.200 C 238.018 217.962,239.206 222.740,240.030 226.200 C 240.450 227.960,241.064 230.384,241.396 231.587 C 241.728 232.790,242.008 234.140,242.018 234.587 C 242.027 235.034,242.301 236.120,242.626 237.000 C 243.179 238.499,244.788 245.654,244.796 246.653 C 244.802 247.333,243.256 247.603,242.057 247.131 C 241.476 246.903,239.380 246.262,237.400 245.708 C 232.454 244.324,227.637 242.946,223.600 241.761 C 221.730 241.212,219.210 240.511,218.000 240.202 C 216.790 239.893,214.630 239.277,213.200 238.832 C 211.770 238.387,208.980 237.556,207.000 236.985 C 201.180 235.308,196.663 233.906,195.727 233.487 L 194.853 233.096 195.727 231.894 C 196.207 231.234,197.668 229.682,198.973 228.446 C 200.279 227.211,203.879 223.756,206.973 220.769 C 232.746 195.891,231.569 196.903,233.148 198.238 M137.704 223.200 C 138.956 223.640,140.210 223.997,140.490 223.993 C 140.771 223.989,142.440 224.433,144.200 224.978 C 147.524 226.008,151.513 227.172,158.000 229.005 C 163.236 230.485,167.585 231.742,171.600 232.937 C 173.470 233.493,175.630 234.068,176.400 234.213 C 178.183 234.551,181.103 235.971,181.353 236.621 C 181.458 236.895,179.442 239.146,176.872 241.622 C 174.302 244.098,170.040 248.211,167.400 250.762 C 148.062 269.450,145.354 271.914,144.779 271.339 C 144.271 270.831,141.936 262.264,140.000 253.800 C 139.597 252.040,139.098 250.150,138.890 249.600 C 138.683 249.050,138.284 247.340,138.003 245.800 C 137.723 244.260,137.334 242.690,137.139 242.312 C 136.944 241.933,136.445 240.043,136.029 238.112 C 135.205 234.277,134.417 231.059,133.143 226.329 C 131.992 222.051,132.819 221.483,137.704 223.200 M199.313 240.841 C 200.681 241.303,202.970 242.002,204.400 242.394 C 205.830 242.786,208.620 243.583,210.600 244.166 C 212.580 244.749,215.730 245.653,217.600 246.176 C 219.470 246.698,222.530 247.572,224.400 248.118 C 232.376 250.446,235.562 251.352,238.200 252.039 C 240.721 252.696,242.400 253.795,242.400 254.788 C 242.400 254.953,238.950 258.398,234.734 262.444 C 230.518 266.490,224.353 272.427,221.034 275.637 C 217.715 278.847,213.200 283.212,211.000 285.335 L 207.000 289.197 206.114 288.193 C 205.627 287.641,205.047 286.516,204.825 285.694 C 204.185 283.326,202.787 277.687,201.975 274.200 C 201.087 270.387,200.302 267.164,198.980 261.900 C 198.441 259.755,197.538 256.155,196.974 253.900 C 196.410 251.645,195.598 248.450,195.169 246.800 C 193.268 239.485,193.655 238.928,199.313 240.841 M187.576 241.700 C 188.230 243.338,189.255 246.905,190.011 250.175 C 190.421 251.949,191.196 255.200,191.732 257.400 C 192.269 259.600,193.016 262.660,193.392 264.200 C 193.767 265.740,194.406 268.170,194.810 269.600 C 195.214 271.030,195.753 273.365,196.006 274.790 C 196.260 276.214,196.642 277.706,196.856 278.105 C 197.070 278.504,197.507 280.201,197.827 281.877 C 198.148 283.552,198.683 285.727,199.017 286.710 C 200.163 290.087,198.969 290.748,194.502 289.205 C 192.380 288.473,190.857 288.034,184.200 286.237 C 182.880 285.880,180.630 285.236,179.200 284.806 C 176.317 283.938,171.759 282.622,166.000 280.995 C 163.910 280.404,160.760 279.495,159.000 278.974 C 157.240 278.454,154.940 277.819,153.890 277.564 C 151.532 276.991,149.939 275.326,151.004 274.548 C 151.725 274.020,178.973 247.924,180.000 246.777 C 181.069 245.583,186.537 240.800,186.832 240.800 C 187.044 240.800,187.379 241.205,187.576 241.700 M158.600 284.999 C 171.924 288.794,175.164 289.733,179.302 290.997 C 181.116 291.550,182.814 292.003,183.075 292.002 C 183.337 292.001,184.957 292.434,186.675 292.964 C 188.394 293.495,191.420 294.419,193.400 295.019 C 199.614 296.900,200.127 295.711,188.146 307.200 C 185.279 309.950,179.348 315.652,174.966 319.871 C 162.490 331.886,161.044 333.215,160.612 333.071 C 159.784 332.795,158.785 330.435,158.028 326.969 C 157.153 322.958,156.608 320.730,153.191 307.200 C 151.401 300.112,150.689 297.212,150.000 294.200 C 149.597 292.440,149.096 290.550,148.885 290.000 C 148.675 289.450,148.266 287.672,147.978 286.048 C 147.259 282.004,147.636 281.716,151.919 283.028 C 153.614 283.548,156.620 284.434,158.600 284.999 " stroke="none" fill="#181818" fill-rule="evenodd"></path></g></svg>