<svg width="342" height="316" viewBox="0 0 342 316" fill="none" xmlns="http://www.w3.org/2000/svg">
<path d="M68 23.5L13.5 35L0 133V204.5C0 208.9 4.66667 278.333 7 312.5L324.5 316L332.5 27.5L259.5 17L152.5 13L112 17L68 23.5Z" fill="black" fill-opacity="0.1"/>
<path d="M77 10.5L22.5 22L9 120V191.5C9 195.9 13.6667 265.333 16 299.5L333.5 303L341.5 14.5L268.5 4L161.5 0L121 4L77 10.5Z" fill="#FFF7C5"/>
<path d="M207.026 21.4188C204.498 26.3291 200.647 26.4072 195 23.5C189.353 20.5928 184.049 15.8012 186.577 10.8909C189.105 5.98059 195.353 7.98371 201 10.8909C206.647 13.7981 209.554 16.5084 207.026 21.4188Z" fill="#C85454" fill-opacity="0.67"/>
<path d="M181 20.5L187 16.5L201 25V31V37.5H194.5L183.5 33L174.5 25L181 20.5Z" fill="#D6877D"/>
<path d="M180.5 40L183 32.5L187.5 34.5L183 41L180.5 40Z" fill="#C4C4C4"/>
</svg>
