<svg width="559" height="657" viewBox="0 0 559 657" fill="none" xmlns="http://www.w3.org/2000/svg">
<path d="M24.0008 572.88C41.3567 466.654 58.005 135.698 0 41.7532H522.729V572.88V615.861L496.461 626.913L472.658 594.37L424.117 608.493L356.675 631.211L322.671 615.861L271.665 654.544L259.763 604.809L221.792 615.861L208.19 654.544H178.153L154.917 615.861L141.117 604.809L95.4096 643.492L58.005 626.913L44.2054 654.544C44.2054 654.544 6.64497 679.105 24.0008 572.88Z" fill="black" fill-opacity="0.2"/>
<path d="M24.0008 572.88C41.3567 466.654 58.005 135.698 0 41.7532H522.729V572.88V615.861L496.461 626.913L472.658 594.37L424.117 608.493L356.675 631.211L322.671 615.861L271.665 654.544L259.763 604.809L221.792 615.861L208.19 654.544H178.153L154.917 615.861L141.117 604.809L95.4096 643.492L58.005 626.913L44.2054 654.544C44.2054 654.544 6.64497 679.105 24.0008 572.88Z" fill="url(#paint0_linear)"/>
<path d="M50.6374 531.126V0H559V531.126V574.108L527.263 623.843L503.46 585.16H458.121L390.679 612.791L358.942 585.16L307.936 623.843L296.034 574.108L258.063 585.16L244.461 623.843H214.424L191.188 585.16L169.085 550.775L131.681 612.791L94.2761 585.16L50.6374 623.843V531.126Z" fill="white"/>
<defs>
<linearGradient id="paint0_linear" x1="596.405" y1="642.878" x2="36.0232" y2="271.618" gradientUnits="userSpaceOnUse">
<stop offset="0.1406" stop-color="white" stop-opacity="0.2"/>
<stop offset="0.654848" stop-color="white" stop-opacity="0"/>
</linearGradient>
</defs>
</svg>
