<svg width="644" height="904" viewBox="0 0 644 904" fill="none" xmlns="http://www.w3.org/2000/svg">
<g style="mix-blend-mode:multiply" opacity="0.3" filter="url(#filter0_f)">
<path d="M633.5 881.5L571.501 109L44.1886 48.865L44.0706 334.503L43.9585 606.003L11.0004 893.5L633.5 881.5Z" fill="#3A3A3A"/>
</g>
<path d="M47.7653 882.859L642.753 879.094L637.5 151.5L612.5 122.5L579.5 93L547 64L515 36.5L42.4372 40.8761L47.7653 882.859Z" fill="white"/>
<path opacity="0.4" d="M638 152L613.5 125L601 112.5L577.5 91L540.5 58.5L514.5 37L42 41L47.5 883L642.673 879L638 152Z" fill="url(#paint0_linear)"/>
<path d="M59.4063 18.5829L74 41L72.5 41L57.69 19.8823C57.7462 19.5613 58.1739 19.2382 58.4223 19.0642C58.7934 18.8043 59.0158 18.724 59.364 18.5982L59.4063 18.5829Z" fill="#8B8B8B"/>
<path d="M25.4707 17.2834C24.6408 17.8646 24.4494 18.9564 25.0306 19.7863L42.5 45L42.5 48.5L23.2685 21.0203C22.0234 19.2423 22.4598 16.7604 24.2342 15.5178L41.5626 3.38245C43.0903 2.33886 45.214 2.66741 46.2761 4.18405L81.0247 53.8026C81.8544 54.9873 82.2341 56.6845 82.5103 58.7253C82.7883 60.7647 82.8927 63.1152 82.8439 65.4231C82.795 67.7309 82.5932 69.9853 82.2363 71.8195C82.0569 72.7372 81.8422 73.5481 81.5666 74.2384C81.2881 74.9282 80.9893 75.5216 80.3761 75.9511C79.7699 76.3756 79.102 76.4644 78.3704 76.4847C77.6387 76.505 76.8234 76.4207 75.9197 76.2667C74.1167 75.961 71.9866 75.3607 69.8549 74.5931C67.7249 73.8243 65.5941 72.8929 63.8016 71.9009C62.1065 70.9617 60.7144 70.0314 59.8608 68.9214C59.8455 68.9032 59.8349 68.8843 59.8213 68.8649C59.7873 68.8202 59.7545 68.7695 59.7211 68.7218L36.8735 36.0972C36.719 35.8765 37.2747 35.1662 37.5061 35.0016C37.8137 34.7808 38.528 34.7095 38.6356 34.8631L61.4832 67.4878C61.9135 68.1023 63.1835 69.0944 64.8422 70.0117C66.5022 70.9307 68.5446 71.8371 70.5818 72.5709C72.6189 73.3048 74.6545 73.8713 76.2728 74.1458C77.0805 74.2828 77.7897 74.3467 78.3071 74.3317C78.8257 74.3185 79.1414 74.1842 79.1396 74.1855C79.1629 74.1587 79.3835 73.8962 79.5719 73.4301C79.7702 72.9333 79.9638 72.2347 80.1243 71.4064C80.4455 69.75 80.6471 67.5852 80.6941 65.376C80.7399 63.165 80.6362 60.8982 80.3785 59.0077C80.1221 57.1189 79.6422 55.5787 79.2626 55.0366L44.514 5.41807C44.1418 4.88662 43.4123 4.74492 42.799 5.14806L25.4707 17.2834Z" fill="#8B8B8B"/>
<path fill-rule="evenodd" clip-rule="evenodd" d="M24.0472 21.5696C33.7375 35.1855 43.2469 48.9518 52.8665 62.6277C58.752 70.9794 64.5456 79.406 70.4944 87.7054C74.499 91.5224 79.8426 93.3587 84.941 95.2537C87.6812 96.0914 90.6452 97.0085 93.5136 96.5031C95.3676 95.4978 95.4256 92.9592 95.8081 91.1053C96.6108 84.8562 96.5235 78.3225 94.9059 72.2063C93.5779 68.945 90.9783 66.4105 89.1625 63.4164L58.7106 19.9333C57.7803 20.1874 59.0175 20.7841 59.1292 21.2848C70.718 37.8816 82.4057 54.417 93.9299 71.0564C96.0579 76.2365 95.8921 81.9774 95.7306 87.492C95.5679 90.2598 95.4066 93.2172 93.961 95.6306C92.619 96.8607 90.6024 96.0362 89.0319 95.8674C83.0397 94.5339 77.2132 92.1392 72.1756 88.651C69.3938 86.3552 67.8802 82.9337 65.6638 80.1439C51.6541 60.0716 37.4883 40.0876 23.5981 19.9421C22.9144 18.242 24.3768 16.6363 25.8355 15.9779C31.4549 12.1478 36.8935 7.99956 42.637 4.38785C44.5047 3.9272 45.4205 6.09368 46.3061 7.32079C57.4717 23.2982 68.7143 39.2243 79.8175 55.2401C81.702 60.3386 81.2614 65.9497 80.7001 71.2348C80.4557 72.6296 80.1615 74.2645 79.1158 75.239C75.9824 75.9623 72.8907 74.5328 69.9478 73.657C66.5804 72.4074 62.9979 71.0269 60.5003 68.3419C52.8002 57.6242 45.3723 46.6239 37.6865 35.9567C36.8594 36.3281 38.1842 36.8924 38.244 37.3978C45.7265 47.981 53.0239 58.7123 60.6283 69.1996C64.6512 72.5927 69.7958 74.2161 74.8194 75.5505C76.3874 75.7944 78.3747 76.3632 79.7339 75.2666C81.1233 73.4515 81.0744 70.9779 81.3934 68.8046C81.7525 64.3558 81.8205 59.7504 80.369 55.4539C78.6737 52.3281 76.2551 49.6245 74.3464 46.614C64.4519 32.5753 54.732 18.396 44.7132 4.45747C43.305 3.30163 41.3446 4.25615 40.2417 5.3627C34.7244 9.34234 28.9574 13.0179 23.6055 17.2001C22.6047 18.501 23.0452 20.3977 24.0472 21.5696V21.5696Z" fill="white" fill-opacity="0.52232"/>
<path d="M547 63.5L515 37L515 68.5L515 108.5C515 122 517.6 151.2 518 152C518.4 152.8 597.5 133 603.5 141.5L638 152L624.5 135L600.5 111L579.5 93L547 63.5Z" fill="white"/>
<defs>
<filter id="filter0_f" x="1.00037" y="38.865" width="642.5" height="864.635" filterUnits="userSpaceOnUse" color-interpolation-filters="sRGB">
<feFlood flood-opacity="0" result="BackgroundImageFix"/>
<feBlend mode="normal" in="SourceGraphic" in2="BackgroundImageFix" result="shape"/>
<feGaussianBlur stdDeviation="5" result="effect1_foregroundBlur"/>
</filter>
<linearGradient id="paint0_linear" x1="294.5" y1="-9.00002" x2="42.1504" y2="865.54" gradientUnits="userSpaceOnUse">
<stop offset="0.0729932" stop-opacity="0.24"/>
<stop offset="0.188282" stop-color="white" stop-opacity="0.02"/>
</linearGradient>
</defs>
</svg>
